<svg width="31" height="28" viewBox="0 0 31 28" fill="none" xmlns="http://www.w3.org/2000/svg">
<path d="M30.9844 4.857L26.4562 0.328064L22.5478 4.23627H4.4881C2.55615 4.23627 0.984375 5.80804 0.984375 7.73999V18.9898C0.984375 20.9218 2.55615 22.4935 4.4881 22.4935H5.43585V27.5256L12.9523 22.4935H22.7382C24.6702 22.4935 26.2419 20.9218 26.2419 18.9898V9.59943L30.9844 4.857ZM17.5003 11.7703L19.5428 13.8129L19.0221 14.3338L16.7296 14.5828L16.9794 12.2911L17.5003 11.7703ZM20.7858 12.5699L18.743 10.5274L23.5144 5.75623L25.5569 7.79877L20.7858 12.5699ZM28.4987 4.857L26.8 6.55603L24.7571 4.51331L26.4562 2.81445L28.4987 4.857ZM24.4841 18.9898C24.4841 19.9524 23.7008 20.7357 22.7382 20.7357H12.4182L7.19385 24.2332V20.7357H4.4881C3.52551 20.7357 2.74219 19.9524 2.74219 18.9898V7.73999C2.74219 6.77741 3.52551 5.99408 4.4881 5.99408H20.7898L16.3101 10.4736H6.48761V12.2316H15.2172L14.9502 14.6877H9.63721V16.4456H15.8655L19.827 16.0143L24.4841 11.3572V18.9898Z" fill="#66509A"/>
</svg>
