<svg width="32" height="30" viewBox="0 0 32 30" fill="none" xmlns="http://www.w3.org/2000/svg">
<path d="M9.25023 22.7074C7.85217 22.6359 7.8785 20.6695 9.25016 20.6012C13.1357 20.6147 23.384 20.6049 27.3931 20.6077C28.4896 20.6077 29.4277 19.8615 29.6743 18.7931L31.9508 8.93535C32.0812 8.37092 31.9496 7.78674 31.5899 7.33268C31.2302 6.87863 30.6917 6.61455 30.1125 6.61455C28.4997 6.61455 14.8096 6.55258 7.79758 6.52463L6.68605 2.40038C6.41922 1.41479 5.51981 0.726486 4.49876 0.726486H0.937998C0.419973 0.726486 0 1.14646 0 1.66448C0 2.18251 0.419973 2.60248 0.937998 2.60248H4.49876C4.67455 2.60248 4.82932 2.72098 4.87503 2.88964L9.14386 18.7278C8.39327 18.7551 7.69415 19.0604 7.16399 19.5983C6.60695 20.1636 6.30779 20.9118 6.32161 21.7053C6.34925 23.2922 7.66301 24.5833 9.25023 24.5833H10.618C10.4147 25.01 10.3005 25.4871 10.3005 25.9903C10.3005 27.8007 11.7733 29.2735 13.5837 29.2735C15.394 29.2735 16.8668 27.8007 16.8668 25.9903C16.8668 25.487 16.7526 25.01 16.5493 24.5833H22.4722C22.2691 25.0099 22.155 25.4867 22.155 25.9898C22.155 27.8002 23.6278 29.273 25.4381 29.273C27.2484 29.273 28.7213 27.8001 28.7213 25.9898C28.7213 25.4671 28.5978 24.9729 28.3796 24.5338C28.7508 24.4088 29.0184 24.0586 29.0184 23.6453C29.0184 23.1273 28.5984 22.7074 28.0804 22.7074H9.25023ZM14.9907 25.9904C14.9907 26.7663 14.3595 27.3975 13.5836 27.3975C12.8077 27.3975 12.1765 26.7663 12.1765 25.9904C12.1765 25.2149 12.8071 24.584 13.5824 24.5833H13.5848C14.3601 24.584 14.9907 25.2149 14.9907 25.9904ZM25.4381 27.397C24.6623 27.397 24.031 26.7658 24.031 25.9899C24.031 25.2217 24.65 24.5957 25.4153 24.5833H25.461C26.2264 24.5957 26.8454 25.2217 26.8454 25.9899C26.8453 26.7658 26.2141 27.397 25.4381 27.397ZM30.1194 8.49743C30.1249 8.50443 30.1241 8.50774 30.1229 8.51312L29.1637 12.6669H25.9156L26.4688 8.47573L30.105 8.49036C30.1106 8.49049 30.1139 8.49049 30.1194 8.49743ZM20.4489 18.7316V14.5429H23.7758L23.223 18.7316H20.4489ZM15.7976 18.7316L15.2403 14.5429H18.5729V18.7316H15.7976ZM11.4795 18.7316H11.4765C11.2479 18.7316 11.0465 18.5773 10.987 18.3577L9.95885 14.5429H13.3477L13.905 18.7316H11.4795ZM14.9907 12.667L14.4265 8.42726L18.5729 8.44396V12.667H14.9907ZM20.4489 12.667V8.45153L24.5775 8.46816L24.0234 12.667H20.4489ZM12.533 8.41957L13.0981 12.6669H9.45321L8.30385 8.4025L12.533 8.41957ZM27.3931 18.7316H25.1152L25.668 14.5429H28.7305L27.8464 18.371C27.7974 18.5833 27.611 18.7316 27.3931 18.7316Z" fill="#66509A"/>
</svg>
