<svg width="24" height="24" viewBox="0 0 24 24" fill="none" xmlns="http://www.w3.org/2000/svg">
<g clip-path="url(#clip0_284_355)">
<path d="M3.99961 10.186H9.19961C9.42081 10.186 9.59961 10.0068 9.59961 9.78599C9.59961 9.56519 9.42081 9.38599 9.19961 9.38599H3.99961C3.77841 9.38599 3.59961 9.56519 3.59961 9.78599C3.59961 10.0068 3.77841 10.186 3.99961 10.186Z" fill="white"/>
<path d="M14.3996 11.786H3.99961C3.77841 11.786 3.59961 11.9652 3.59961 12.186C3.59961 12.4068 3.77841 12.586 3.99961 12.586H14.3996C14.6208 12.586 14.7996 12.4068 14.7996 12.186C14.7996 11.9652 14.6208 11.786 14.3996 11.786Z" fill="white"/>
<path d="M14.3996 14.186H3.99961C3.77841 14.186 3.59961 14.3652 3.59961 14.586C3.59961 14.8068 3.77841 14.986 3.99961 14.986H14.3996C14.6208 14.986 14.7996 14.8068 14.7996 14.586C14.7996 14.3652 14.6208 14.186 14.3996 14.186Z" fill="white"/>
<path d="M21.6288 1.01399L7.972 0.985992C6.664 0.985992 5.6 2.04999 5.6 3.35799V5.40759L2.372 5.41439C1.064 5.41439 0 6.47839 0 7.78639V16.2428C0 17.5508 1.064 18.6144 2.372 18.6144H4.8V22.6144C4.8 22.7796 4.9016 22.928 5.056 22.9876C5.1028 23.0056 5.1516 23.0144 5.2 23.0144C5.3104 23.0144 5.4188 22.9684 5.496 22.8836L9.3776 18.6136L16.028 18.5864C17.336 18.5864 18.4 17.5224 18.4 16.2148V16.1696L20.504 18.484C20.5812 18.5688 20.6896 18.6148 20.8 18.6148C20.8484 18.6148 20.8972 18.606 20.944 18.588C21.0984 18.5284 21.2 18.38 21.2 18.2148V14.2148H21.628C22.936 14.2148 24 13.1508 24 11.8432V3.38599C24 2.07839 22.9364 1.01439 21.6288 1.01399ZM17.6 16.2144C17.6 17.0812 16.8948 17.786 16.0264 17.786L9.1984 17.814C9.0864 17.8144 8.9792 17.862 8.904 17.9448L5.6 21.5796V18.214C5.6 17.9932 5.4212 17.814 5.2 17.814H2.372C1.5052 17.814 0.8 17.1088 0.8 16.2424V7.78599C0.8 6.91919 1.5052 6.21399 2.3728 6.21399L6 6.20639C6.0004 6.20639 6.0004 6.20639 6.0008 6.20639L16.028 6.18559C16.8948 6.18559 17.6 6.89079 17.6 7.75759V15.134V16.2144ZM23.2 11.8424C23.2 12.7092 22.4948 13.414 21.628 13.414H20.8C20.5788 13.414 20.4 13.5932 20.4 13.814V17.1796L18.4 14.9796V7.75799C18.4 6.44999 17.336 5.38599 16.0272 5.38599L6.4 5.40559V3.35759C6.4 2.49079 7.1052 1.78559 7.9712 1.78559L21.6276 1.81359C21.628 1.81359 21.628 1.81359 21.6284 1.81359C22.4952 1.81359 23.2004 2.51879 23.2004 3.38559L23.2 11.8424Z" fill="white"/>
</g>
<defs>
<clipPath id="clip0_284_355">
<rect width="24" height="24" fill="white"/>
</clipPath>
</defs>
</svg>
