<svg width="24" height="24" viewBox="0 0 24 24" fill="none" xmlns="http://www.w3.org/2000/svg">
<path d="M14.2163 22.7512C13.709 22.7512 13.2558 22.3805 12.8155 22.0205C12.5465 21.8002 12.1778 21.4987 11.9998 21.4987C11.822 21.4987 11.4532 21.8002 11.1842 22.0205C10.702 22.4147 10.155 22.863 9.55275 22.725C8.93125 22.5837 8.627 21.9302 8.3585 21.354C8.2245 21.0657 8.0215 20.63 7.87725 20.5602C7.72425 20.4855 7.24925 20.6007 6.935 20.6762C6.32325 20.8235 5.63025 20.9895 5.14025 20.5987C4.6485 20.206 4.65725 19.4907 4.6655 18.86C4.6695 18.5382 4.6755 18.0522 4.572 17.9222C4.46975 17.7942 3.9965 17.693 3.68325 17.626C3.06375 17.4935 2.36225 17.3432 2.08725 16.7732C1.81625 16.212 2.1325 15.5755 2.411 15.014C2.55575 14.723 2.77425 14.2827 2.736 14.114C2.7015 13.9627 2.325 13.6705 2.076 13.477C1.57175 13.086 1 12.642 1 12C1 11.358 1.57175 10.9142 2.07625 10.5227C2.32525 10.3295 2.70175 10.0372 2.73625 9.88575C2.7745 9.717 2.556 9.27675 2.4115 8.9855C2.13275 8.424 1.81675 7.78775 2.088 7.226C2.363 6.65625 3.0645 6.506 3.68375 6.3735C3.997 6.3065 4.47025 6.20525 4.57225 6.0775C4.67625 5.94725 4.67025 5.461 4.66625 5.13925C4.65825 4.5085 4.6495 3.7935 5.141 3.40075C5.63075 3.00975 6.32425 3.17625 6.93575 3.32325C7.2505 3.39875 7.725 3.513 7.87775 3.4395C8.02225 3.36975 8.225 2.93425 8.35925 2.64575C8.6275 2.06925 8.9315 1.416 9.553 1.27475C10.1545 1.13825 10.7025 1.58475 11.1845 1.97925C11.4537 2.1995 11.8225 2.501 12.0002 2.501C12.178 2.501 12.5468 2.1995 12.8158 1.9795C13.2983 1.58475 13.845 1.13725 14.4475 1.27475C15.0688 1.416 15.373 2.0695 15.6415 2.646C15.7758 2.93425 15.9785 3.37 16.123 3.43975C16.2762 3.5135 16.7505 3.399 17.0648 3.3235C17.6765 3.1765 18.3698 3.01 18.8598 3.401C19.3515 3.79375 19.3427 4.50875 19.3345 5.13975C19.3305 5.4615 19.3245 5.94775 19.428 6.0775C19.5302 6.20525 20.0035 6.30675 20.3167 6.37375C20.9362 6.50625 21.6378 6.65625 21.9128 7.22625C22.1838 7.78775 21.8675 8.42425 21.589 8.98575C21.4443 9.277 21.2257 9.717 21.264 9.88575C21.2985 10.0372 21.675 10.3295 21.924 10.5227C22.4282 10.9142 23 11.358 23 12C23 12.642 22.4282 13.0857 21.9237 13.4772C21.6747 13.6705 21.2983 13.9625 21.2638 14.1145C21.2255 14.2832 21.444 14.7232 21.5885 15.0145C21.8672 15.576 22.1833 16.2122 21.912 16.774C21.637 17.3437 20.9355 17.494 20.3162 17.6262C20.003 17.6935 19.5297 17.7947 19.4275 17.9225C19.3237 18.0527 19.3298 18.539 19.3337 18.8607C19.3417 19.4912 19.3505 20.2062 18.859 20.599C18.3692 20.99 17.6758 20.8232 17.0643 20.6765C16.7495 20.601 16.275 20.4862 16.1222 20.5605C15.9777 20.63 15.775 21.0657 15.6407 21.354C15.3725 21.9307 15.0685 22.584 14.447 22.7252C14.369 22.743 14.292 22.7512 14.2163 22.7512ZM7.7225 19.5375C7.92975 19.5375 8.1285 19.571 8.31175 19.6592C8.7775 19.8837 9.0255 20.4165 9.26525 20.9317C9.384 21.1867 9.631 21.7172 9.77425 21.7497C9.9075 21.7732 10.3425 21.4165 10.551 21.246C11.0005 20.8785 11.465 20.4985 11.9998 20.4985C12.5345 20.4985 12.9992 20.8787 13.4485 21.246C13.657 21.4165 14.079 21.7662 14.2257 21.7497C14.3685 21.717 14.6158 21.1867 14.7343 20.9317C14.9738 20.4165 15.2218 19.8842 15.6877 19.6592C16.1617 19.4305 16.7388 19.5697 17.2975 19.704C17.5662 19.7685 18.1265 19.9032 18.2345 19.8172C18.3443 19.7297 18.337 19.151 18.3335 18.873C18.3263 18.3 18.3188 17.7077 18.6458 17.2982C18.9708 16.8912 19.548 16.7677 20.1065 16.6482C20.38 16.5897 20.9487 16.468 21.011 16.3392C21.069 16.2185 20.8145 15.7055 20.6922 15.459C20.436 14.9427 20.1707 14.4087 20.2882 13.8927C20.402 13.3922 20.8637 13.0337 21.31 12.6872C21.5515 12.5002 22 12.1522 22 12C22 11.8477 21.5515 11.4997 21.3105 11.3125C20.864 10.966 20.4023 10.6077 20.2885 10.107C20.1712 9.591 20.4365 9.057 20.6928 8.54075C20.815 8.29425 21.0697 7.7815 21.0115 7.6605C20.9492 7.5315 20.3805 7.41 20.1073 7.3515C19.5487 7.232 18.9713 7.1085 18.6462 6.70175C18.3195 6.2925 18.327 5.7 18.3342 5.12725C18.3377 4.84925 18.345 4.27025 18.2353 4.18275C18.1278 4.09675 17.5673 4.2315 17.298 4.296C16.7395 4.43025 16.1625 4.56925 15.6882 4.3405C15.2225 4.11575 14.9745 3.58325 14.7347 3.06825C14.616 2.81325 14.3693 2.28275 14.2257 2.25025C14.0883 2.2265 13.6572 2.5835 13.4487 2.75375C12.9995 3.1215 12.535 3.5015 12.0002 3.5015C11.4655 3.5015 11.001 3.12125 10.5515 2.75375C10.343 2.58325 9.908 2.228 9.77425 2.25C9.63125 2.2825 9.384 2.813 9.2655 3.068C9.02575 3.583 8.778 4.1155 8.31225 4.34025C7.83825 4.56875 7.26125 4.43025 6.70225 4.29575C6.4335 4.231 5.87275 4.0965 5.76525 4.18225C5.6555 4.27 5.66275 4.84875 5.66625 5.12675C5.6735 5.69975 5.681 6.29225 5.354 6.70125C5.029 7.10825 4.45175 7.23175 3.89325 7.35125C3.61975 7.40975 3.051 7.5315 2.98875 7.66025C2.93075 7.781 3.18525 8.294 3.3075 8.5405C3.56375 9.05675 3.829 9.59075 3.7115 10.1067C3.59775 10.6072 3.136 10.9657 2.68975 11.3122C2.4485 11.4997 2 11.8477 2 12C2 12.1522 2.4485 12.5005 2.6895 12.6875C3.136 13.034 3.59775 13.392 3.7115 13.8927C3.82875 14.4087 3.5635 14.9425 3.30725 15.459C3.185 15.7055 2.93025 16.2182 2.9885 16.3392C3.05075 16.4685 3.6195 16.59 3.893 16.6485C4.45125 16.768 5.02875 16.8915 5.35375 17.2985C5.6805 17.7077 5.673 18.3 5.66575 18.873C5.66225 19.151 5.655 19.73 5.76475 19.8175C5.87225 19.9022 6.43275 19.7687 6.702 19.704C7.04425 19.6215 7.394 19.5375 7.7225 19.5375ZM8.8535 15.8535L15.8535 8.8535C16.0487 8.65825 16.0487 8.34175 15.8535 8.1465C15.6583 7.95125 15.3417 7.95125 15.1465 8.1465L8.1465 15.1465C7.95125 15.3417 7.95125 15.6582 8.1465 15.8535C8.24425 15.9512 8.372 16 8.5 16C8.628 16 8.75575 15.9512 8.8535 15.8535ZM9.5 11.25C8.53525 11.25 7.75 10.465 7.75 9.5C7.75 8.535 8.53525 7.75 9.5 7.75C10.4648 7.75 11.25 8.535 11.25 9.5C11.25 10.465 10.4648 11.25 9.5 11.25ZM9.5 8.75C9.0865 8.75 8.75 9.0865 8.75 9.5C8.75 9.9135 9.0865 10.25 9.5 10.25C9.9135 10.25 10.25 9.9135 10.25 9.5C10.25 9.0865 9.9135 8.75 9.5 8.75ZM14.5 16.25C13.5352 16.25 12.75 15.4647 12.75 14.5C12.75 13.5352 13.5352 12.75 14.5 12.75C15.4648 12.75 16.25 13.5352 16.25 14.5C16.25 15.4647 15.4648 16.25 14.5 16.25ZM14.5 13.75C14.0865 13.75 13.75 14.0865 13.75 14.5C13.75 14.9135 14.0865 15.25 14.5 15.25C14.9135 15.25 15.25 14.9135 15.25 14.5C15.25 14.0865 14.9135 13.75 14.5 13.75Z" fill="#F1EBFF"/>
</svg>
