<svg width="32" height="32" viewBox="0 0 32 32" fill="none" xmlns="http://www.w3.org/2000/svg">
<g clip-path="url(#clip0_292_512)">
<path d="M18.2841 20.345C17.9766 20.6523 17.5966 20.8871 17.1847 21.0244L13.2072 22.3503C12.9201 22.446 12.6207 22.4946 12.3179 22.4946C11.5666 22.4946 10.8602 22.2021 10.3291 21.6708C9.57088 20.9124 9.31063 19.8097 9.64969 18.7926L10.9756 14.8153C11.1128 14.4033 11.3478 14.0231 11.6549 13.7159L20.2459 5.125H3.4375C1.54206 5.125 0 6.66706 0 8.5625V28.5625C0 30.4579 1.54206 32 3.4375 32H23.4375C25.3329 32 26.875 30.4579 26.875 28.5625V11.7541L18.2841 20.345Z" fill="white"/>
<path d="M12.9813 15.0417C12.8784 15.1447 12.8009 15.2701 12.7549 15.4082L11.429 19.3856C11.3167 19.7225 11.4044 20.0939 11.6554 20.345C11.9066 20.5961 12.2779 20.6838 12.6148 20.5714L16.5923 19.2456C16.7304 19.1996 16.8558 19.1221 16.9588 19.0192L28.6703 7.30775L24.6928 3.33031L12.9813 15.0417Z" fill="white"/>
<path d="M29.7741 0.457625C29.1639 -0.152562 28.1746 -0.152562 27.5644 0.457625L26.0176 2.00444L29.9951 5.98194L31.5419 4.43513C32.1521 3.82494 32.1521 2.83563 31.5419 2.22544L29.7741 0.457625Z" fill="white"/>
</g>
<defs>
<clipPath id="clip0_292_512">
<rect width="32" height="32" fill="white"/>
</clipPath>
</defs>
</svg>
