<svg width="24" height="24" viewBox="0 0 24 24" fill="none" xmlns="http://www.w3.org/2000/svg">
<g clip-path="url(#clip0_285_464)">
<path d="M21.8182 0H2.18184C0.978495 0 0 0.978495 0 2.18184V21.8182C0 23.0215 0.978495 24.0001 2.18184 24.0001H21.8182C23.0215 24.0001 24.0001 23.0216 24.0001 21.8182V2.18184C24 0.978495 23.0215 0 21.8182 0ZM22.9091 21.8182C22.9091 22.4196 22.4196 22.9091 21.8182 22.9091H2.18184C1.58047 22.9091 1.09094 22.4196 1.09094 21.8182V9.81819H22.9091V21.8182ZM22.9091 8.7273H1.09089V5.45457H22.9091V8.7273ZM22.9091 4.36362H1.09089V2.18184C1.09089 1.58047 1.58042 1.09094 2.18179 1.09094H21.8182C22.4195 1.09094 22.9091 1.58047 22.9091 2.18184V4.36362H22.9091Z" fill="white"/>
<path d="M2.72711 3.27274C3.02837 3.27274 3.27258 3.02852 3.27258 2.72727C3.27258 2.42601 3.02837 2.18179 2.72711 2.18179C2.42586 2.18179 2.18164 2.42601 2.18164 2.72727C2.18164 3.02852 2.42586 3.27274 2.72711 3.27274Z" fill="white"/>
<path d="M4.90875 3.27274C5.21001 3.27274 5.45423 3.02852 5.45423 2.72727C5.45423 2.42601 5.21001 2.18179 4.90875 2.18179C4.6075 2.18179 4.36328 2.42601 4.36328 2.72727C4.36328 3.02852 4.6075 3.27274 4.90875 3.27274Z" fill="white"/>
<path d="M7.09039 3.27274C7.39165 3.27274 7.63587 3.02852 7.63587 2.72727C7.63587 2.42601 7.39165 2.18179 7.09039 2.18179C6.78914 2.18179 6.54492 2.42601 6.54492 2.72727C6.54492 3.02852 6.78914 3.27274 7.09039 3.27274Z" fill="white"/>
<path d="M7.09039 7.63635H16.9086C17.2101 7.63635 17.4541 7.39238 17.4541 7.09088C17.4541 6.78938 17.2101 6.54546 16.9086 6.54546H7.09039C6.78889 6.54546 6.54492 6.78943 6.54492 7.09093C6.54492 7.39243 6.78889 7.63635 7.09039 7.63635Z" fill="white"/>
</g>
<defs>
<clipPath id="clip0_285_464">
<rect width="24" height="24" fill="white"/>
</clipPath>
</defs>
</svg>
