<svg width="24" height="24" viewBox="0 0 24 24" fill="none" xmlns="http://www.w3.org/2000/svg">
<path fill-rule="evenodd" clip-rule="evenodd" d="M15.3077 20.3683C13.7843 20.9705 12.1135 21.1497 10.4761 20.8683C8.22834 20.4821 6.21114 19.2567 4.83233 17.44C3.45352 15.6233 2.81599 13.3508 3.04865 11.0821C3.28131 8.81327 4.3668 6.71747 6.08564 5.21843C7.80447 3.71939 10.0284 2.92895 12.3077 3.00695C14.5871 3.08494 16.7518 4.02555 18.3641 5.63858C19.9765 7.2516 20.9162 9.4167 20.9932 11.6961C21.0493 13.3566 20.6446 14.9874 19.8409 16.4149C19.6223 16.8031 19.3742 17.1763 19.0978 17.5309C19.0874 17.5443 19.0778 17.5579 19.0688 17.5719C18.931 17.7872 18.9608 18.0758 19.1564 18.2466C19.3648 18.4285 19.6823 18.4078 19.8535 18.1905C19.865 18.1759 19.8765 18.1613 19.8879 18.1467C20.1816 17.7698 20.4466 17.3741 20.6816 16.9629C21.5961 15.3631 22.0574 13.5295 21.9943 11.6622C21.9087 9.12913 20.8644 6.72302 19.0726 4.93043C17.2808 3.13784 14.8751 2.09253 12.342 2.00585C9.80892 1.91918 7.33743 2.7976 5.42725 4.46352C3.51708 6.12943 2.31076 8.45853 2.0522 10.9799C1.79364 13.5012 2.50213 16.0267 4.03443 18.0456C5.56673 20.0645 7.80849 21.4263 10.3064 21.8556C12.1478 22.172 14.0271 21.9643 15.7364 21.2758C16.1757 21.0989 16.6037 20.8902 17.017 20.6504C17.0331 20.6411 17.0492 20.6317 17.0652 20.6223C17.3037 20.4822 17.3674 20.1705 17.2155 19.9393C17.0729 19.7222 16.791 19.6535 16.559 19.7608C16.544 19.7678 16.5291 19.7755 16.5145 19.7839C16.1255 20.0095 15.7221 20.2046 15.3077 20.3683Z" fill="white"/>
<path fill-rule="evenodd" clip-rule="evenodd" d="M12 8C12.5523 8 13 7.55228 13 7C13 6.44771 12.5523 6 12 6C11.4477 6 11 6.44771 11 7C11 7.55228 11.4477 8 12 8ZM12 9C13.1046 9 14 8.10456 14 7C14 5.89543 13.1046 5 12 5C10.8955 5 10 5.89543 10 7C10 8.10456 10.8955 9 12 9Z" fill="white"/>
<path fill-rule="evenodd" clip-rule="evenodd" d="M14 12V17C14 18.1046 13.1046 19 12 19C10.8955 19 10 18.1046 10 17V12C10 10.8954 10.8955 10 12 10C13.1046 10 14 10.8954 14 12ZM12 11C11.4477 11 11 11.4477 11 12V17C11 17.5523 11.4477 18 12 18C12.5523 18 13 17.5523 13 17V12C13 11.4477 12.5523 11 12 11Z" fill="white"/>
</svg>
