<svg width="32" height="32" viewBox="0 0 32 32" fill="none" xmlns="http://www.w3.org/2000/svg">
<g clip-path="url(#clip0_281_49)">
<mask id="path-1-outside-1_281_49" maskUnits="userSpaceOnUse" x="-1" y="-1" width="34" height="34" fill="black">
<rect fill="white" x="-1" y="-1" width="34" height="34"/>
<path d="M30.6133 25.1883C30.4216 25.0038 30.1874 24.8694 29.9315 24.7966C29.6756 24.7239 29.4057 24.7152 29.1456 24.7712L28.9173 21.5947C28.8887 21.2672 28.7637 20.9557 28.5579 20.6993C28.3522 20.443 28.0751 20.2535 27.7616 20.1547L27.7333 20.1445V6.93333C27.7312 5.09515 27.0001 3.33286 25.7003 2.03307C24.4005 0.733272 22.6382 0.00211732 20.8 0H6.93333C5.09515 0.00211732 3.33286 0.733272 2.03307 2.03307C0.733271 3.33286 0.00211732 5.09515 0 6.93333L0 20.8C0.00211732 22.6382 0.733271 24.4005 2.03307 25.7003C3.33286 27.0001 5.09515 27.7312 6.93333 27.7333H20.1445L20.1536 27.7621C20.2533 28.0771 20.4445 28.3553 20.7029 28.5612C20.9612 28.7671 21.275 28.8915 21.6043 28.9184L24.7568 29.1451C24.7325 29.256 24.72 29.3691 24.7195 29.4827C24.7189 29.6929 24.76 29.9011 24.8405 30.0953C24.9209 30.2894 25.0392 30.4657 25.1883 30.6139L26.1051 31.5312C26.2533 31.6802 26.4296 31.7984 26.6237 31.8789C26.8179 31.9593 27.0261 32.0005 27.2363 32H30.4C30.8243 32 31.2313 31.8314 31.5314 31.5314C31.8314 31.2313 32 30.8244 32 30.4V27.2363C32.0004 27.0261 31.9592 26.8179 31.8787 26.6238C31.7982 26.4296 31.6801 26.2533 31.5312 26.1051L30.6133 25.1883ZM6.93333 26.6667C5.37796 26.6648 3.88682 26.0462 2.787 24.9463C1.68718 23.8465 1.0685 22.3554 1.06667 20.8V6.93333C1.0685 5.37796 1.68718 3.88682 2.787 2.787C3.88682 1.68718 5.37796 1.0685 6.93333 1.06667H20.8C22.3554 1.0685 23.8465 1.68718 24.9463 2.787C26.0462 3.88682 26.6648 5.37796 26.6667 6.93333V19.8096L19.8827 17.6763C19.8336 17.6603 19.7835 17.6512 19.7333 17.64V17.0667C19.7333 16.7838 19.621 16.5125 19.4209 16.3124C19.2209 16.1124 18.9496 16 18.6667 16H16.5333C16.2504 16 15.9791 16.1124 15.7791 16.3124C15.579 16.5125 15.4667 16.7838 15.4667 17.0667V18.6667H13.8667V8.53333C14.1496 8.53333 14.4209 8.42095 14.6209 8.22091C14.821 8.02088 14.9333 7.74957 14.9333 7.46667V5.33333C14.9333 5.05044 14.821 4.77913 14.6209 4.57909C14.4209 4.37905 14.1496 4.26667 13.8667 4.26667H8.53333C8.25044 4.26667 7.97913 4.37905 7.77909 4.57909C7.57905 4.77913 7.46667 5.05044 7.46667 5.33333V7.46667C7.46667 7.74957 7.57905 8.02088 7.77909 8.22091C7.97913 8.42095 8.25044 8.53333 8.53333 8.53333V20.8C8.53418 21.507 8.8154 22.1848 9.31532 22.6847C9.81523 23.1846 10.493 23.4658 11.2 23.4667H17.0667C17.6334 23.4683 18.1857 23.2883 18.6427 22.9531L19.8096 26.6667H6.93333ZM9.06667 7.46667H8.53333V5.33333H13.8667V7.46667H13.3333C13.1919 7.46667 13.0562 7.52286 12.9562 7.62288C12.8562 7.7229 12.8 7.85855 12.8 8V18.6667C12.8 18.9496 12.9124 19.2209 13.1124 19.4209C13.3125 19.621 13.5838 19.7333 13.8667 19.7333H15.4667C15.7496 19.7333 16.0209 19.621 16.2209 19.4209C16.421 19.2209 16.5333 18.9496 16.5333 18.6667V17.0667H18.6667V17.752C18.4643 17.8409 18.2801 17.9664 18.1232 18.1221C17.8947 18.3464 17.7323 18.6293 17.6537 18.9397C17.5752 19.2501 17.5835 19.5761 17.6779 19.8821L18.2848 21.8133C18.1382 21.9956 17.9528 22.1429 17.742 22.2443C17.5313 22.3458 17.3006 22.399 17.0667 22.4H11.2C10.7757 22.4 10.3687 22.2314 10.0686 21.9314C9.76857 21.6313 9.6 21.2243 9.6 20.8V8C9.6 7.85855 9.54381 7.7229 9.44379 7.62288C9.34377 7.52286 9.20812 7.46667 9.06667 7.46667ZM21.1733 27.4421L18.6955 19.5632C18.6833 19.5192 18.6762 19.4739 18.6741 19.4283L22.3387 23.0933C22.1598 23.4132 22.0738 23.7765 22.0903 24.1426C22.1068 24.5087 22.2252 24.8628 22.4322 25.1652C22.6391 25.4676 22.9263 25.7063 23.2615 25.8543C23.5967 26.0022 23.9666 26.0537 24.3295 26.0028C24.6924 25.952 25.0338 25.8008 25.3155 25.5664C25.5971 25.3319 25.8076 25.0235 25.9234 24.6759C26.0393 24.3283 26.0557 23.9552 25.971 23.5987C25.8862 23.2422 25.7036 22.9165 25.4437 22.6581C25.1352 22.3658 24.7424 22.1782 24.3212 22.1218C23.8999 22.0654 23.4716 22.1431 23.0971 22.344L19.4277 18.6747C19.4734 18.6767 19.5186 18.6838 19.5627 18.696L27.4421 21.1733C27.5537 21.2075 27.6526 21.2741 27.7262 21.3647C27.7997 21.4554 27.8445 21.5659 27.8549 21.6821L28.1216 25.4187L25.4144 28.1253L21.688 27.8587C21.5703 27.8491 21.4581 27.8043 21.3663 27.7299C21.2745 27.6556 21.2072 27.5553 21.1733 27.4421ZM24.0533 23.1536C24.2325 23.1519 24.408 23.204 24.5573 23.3029C24.7066 23.4019 24.8229 23.5434 24.8911 23.709C24.9593 23.8747 24.9764 24.0569 24.9401 24.2324C24.9038 24.4078 24.8158 24.5684 24.6875 24.6933C24.516 24.8536 24.2889 24.9409 24.0542 24.9367C23.8195 24.9325 23.5957 24.8371 23.4301 24.6708C23.2645 24.5044 23.1702 24.2802 23.167 24.0455C23.1639 23.8108 23.2522 23.5841 23.4133 23.4133C23.4977 23.3301 23.5977 23.2643 23.7075 23.2198C23.8173 23.1752 23.9348 23.1527 24.0533 23.1536ZM30.9333 30.4C30.9333 30.5415 30.8771 30.6771 30.7771 30.7771C30.6771 30.8771 30.5415 30.9333 30.4 30.9333H27.2363C27.0949 30.9329 26.9594 30.8768 26.8592 30.7771L25.9424 29.8597C25.8424 29.7597 25.7862 29.6241 25.7862 29.4827C25.7862 29.3412 25.8424 29.2056 25.9424 29.1056L29.1061 25.9424C29.2061 25.8426 29.3416 25.7865 29.4829 25.7865C29.6242 25.7865 29.7597 25.8426 29.8597 25.9424L30.7771 26.8592C30.8768 26.9594 30.9329 27.0949 30.9333 27.2363V30.4Z"/>
</mask>
<path d="M30.6133 25.1883C30.4216 25.0038 30.1874 24.8694 29.9315 24.7966C29.6756 24.7239 29.4057 24.7152 29.1456 24.7712L28.9173 21.5947C28.8887 21.2672 28.7637 20.9557 28.5579 20.6993C28.3522 20.443 28.0751 20.2535 27.7616 20.1547L27.7333 20.1445V6.93333C27.7312 5.09515 27.0001 3.33286 25.7003 2.03307C24.4005 0.733272 22.6382 0.00211732 20.8 0H6.93333C5.09515 0.00211732 3.33286 0.733272 2.03307 2.03307C0.733271 3.33286 0.00211732 5.09515 0 6.93333L0 20.8C0.00211732 22.6382 0.733271 24.4005 2.03307 25.7003C3.33286 27.0001 5.09515 27.7312 6.93333 27.7333H20.1445L20.1536 27.7621C20.2533 28.0771 20.4445 28.3553 20.7029 28.5612C20.9612 28.7671 21.275 28.8915 21.6043 28.9184L24.7568 29.1451C24.7325 29.256 24.72 29.3691 24.7195 29.4827C24.7189 29.6929 24.76 29.9011 24.8405 30.0953C24.9209 30.2894 25.0392 30.4657 25.1883 30.6139L26.1051 31.5312C26.2533 31.6802 26.4296 31.7984 26.6237 31.8789C26.8179 31.9593 27.0261 32.0005 27.2363 32H30.4C30.8243 32 31.2313 31.8314 31.5314 31.5314C31.8314 31.2313 32 30.8244 32 30.4V27.2363C32.0004 27.0261 31.9592 26.8179 31.8787 26.6238C31.7982 26.4296 31.6801 26.2533 31.5312 26.1051L30.6133 25.1883ZM6.93333 26.6667C5.37796 26.6648 3.88682 26.0462 2.787 24.9463C1.68718 23.8465 1.0685 22.3554 1.06667 20.8V6.93333C1.0685 5.37796 1.68718 3.88682 2.787 2.787C3.88682 1.68718 5.37796 1.0685 6.93333 1.06667H20.8C22.3554 1.0685 23.8465 1.68718 24.9463 2.787C26.0462 3.88682 26.6648 5.37796 26.6667 6.93333V19.8096L19.8827 17.6763C19.8336 17.6603 19.7835 17.6512 19.7333 17.64V17.0667C19.7333 16.7838 19.621 16.5125 19.4209 16.3124C19.2209 16.1124 18.9496 16 18.6667 16H16.5333C16.2504 16 15.9791 16.1124 15.7791 16.3124C15.579 16.5125 15.4667 16.7838 15.4667 17.0667V18.6667H13.8667V8.53333C14.1496 8.53333 14.4209 8.42095 14.6209 8.22091C14.821 8.02088 14.9333 7.74957 14.9333 7.46667V5.33333C14.9333 5.05044 14.821 4.77913 14.6209 4.57909C14.4209 4.37905 14.1496 4.26667 13.8667 4.26667H8.53333C8.25044 4.26667 7.97913 4.37905 7.77909 4.57909C7.57905 4.77913 7.46667 5.05044 7.46667 5.33333V7.46667C7.46667 7.74957 7.57905 8.02088 7.77909 8.22091C7.97913 8.42095 8.25044 8.53333 8.53333 8.53333V20.8C8.53418 21.507 8.8154 22.1848 9.31532 22.6847C9.81523 23.1846 10.493 23.4658 11.2 23.4667H17.0667C17.6334 23.4683 18.1857 23.2883 18.6427 22.9531L19.8096 26.6667H6.93333ZM9.06667 7.46667H8.53333V5.33333H13.8667V7.46667H13.3333C13.1919 7.46667 13.0562 7.52286 12.9562 7.62288C12.8562 7.7229 12.8 7.85855 12.8 8V18.6667C12.8 18.9496 12.9124 19.2209 13.1124 19.4209C13.3125 19.621 13.5838 19.7333 13.8667 19.7333H15.4667C15.7496 19.7333 16.0209 19.621 16.2209 19.4209C16.421 19.2209 16.5333 18.9496 16.5333 18.6667V17.0667H18.6667V17.752C18.4643 17.8409 18.2801 17.9664 18.1232 18.1221C17.8947 18.3464 17.7323 18.6293 17.6537 18.9397C17.5752 19.2501 17.5835 19.5761 17.6779 19.8821L18.2848 21.8133C18.1382 21.9956 17.9528 22.1429 17.742 22.2443C17.5313 22.3458 17.3006 22.399 17.0667 22.4H11.2C10.7757 22.4 10.3687 22.2314 10.0686 21.9314C9.76857 21.6313 9.6 21.2243 9.6 20.8V8C9.6 7.85855 9.54381 7.7229 9.44379 7.62288C9.34377 7.52286 9.20812 7.46667 9.06667 7.46667ZM21.1733 27.4421L18.6955 19.5632C18.6833 19.5192 18.6762 19.4739 18.6741 19.4283L22.3387 23.0933C22.1598 23.4132 22.0738 23.7765 22.0903 24.1426C22.1068 24.5087 22.2252 24.8628 22.4322 25.1652C22.6391 25.4676 22.9263 25.7063 23.2615 25.8543C23.5967 26.0022 23.9666 26.0537 24.3295 26.0028C24.6924 25.952 25.0338 25.8008 25.3155 25.5664C25.5971 25.3319 25.8076 25.0235 25.9234 24.6759C26.0393 24.3283 26.0557 23.9552 25.971 23.5987C25.8862 23.2422 25.7036 22.9165 25.4437 22.6581C25.1352 22.3658 24.7424 22.1782 24.3212 22.1218C23.8999 22.0654 23.4716 22.1431 23.0971 22.344L19.4277 18.6747C19.4734 18.6767 19.5186 18.6838 19.5627 18.696L27.4421 21.1733C27.5537 21.2075 27.6526 21.2741 27.7262 21.3647C27.7997 21.4554 27.8445 21.5659 27.8549 21.6821L28.1216 25.4187L25.4144 28.1253L21.688 27.8587C21.5703 27.8491 21.4581 27.8043 21.3663 27.7299C21.2745 27.6556 21.2072 27.5553 21.1733 27.4421ZM24.0533 23.1536C24.2325 23.1519 24.408 23.204 24.5573 23.3029C24.7066 23.4019 24.8229 23.5434 24.8911 23.709C24.9593 23.8747 24.9764 24.0569 24.9401 24.2324C24.9038 24.4078 24.8158 24.5684 24.6875 24.6933C24.516 24.8536 24.2889 24.9409 24.0542 24.9367C23.8195 24.9325 23.5957 24.8371 23.4301 24.6708C23.2645 24.5044 23.1702 24.2802 23.167 24.0455C23.1639 23.8108 23.2522 23.5841 23.4133 23.4133C23.4977 23.3301 23.5977 23.2643 23.7075 23.2198C23.8173 23.1752 23.9348 23.1527 24.0533 23.1536ZM30.9333 30.4C30.9333 30.5415 30.8771 30.6771 30.7771 30.7771C30.6771 30.8771 30.5415 30.9333 30.4 30.9333H27.2363C27.0949 30.9329 26.9594 30.8768 26.8592 30.7771L25.9424 29.8597C25.8424 29.7597 25.7862 29.6241 25.7862 29.4827C25.7862 29.3412 25.8424 29.2056 25.9424 29.1056L29.1061 25.9424C29.2061 25.8426 29.3416 25.7865 29.4829 25.7865C29.6242 25.7865 29.7597 25.8426 29.8597 25.9424L30.7771 26.8592C30.8768 26.9594 30.9329 27.0949 30.9333 27.2363V30.4Z" fill="#66509A"/>
<path d="M30.6133 25.1883C30.4216 25.0038 30.1874 24.8694 29.9315 24.7966C29.6756 24.7239 29.4057 24.7152 29.1456 24.7712L28.9173 21.5947C28.8887 21.2672 28.7637 20.9557 28.5579 20.6993C28.3522 20.443 28.0751 20.2535 27.7616 20.1547L27.7333 20.1445V6.93333C27.7312 5.09515 27.0001 3.33286 25.7003 2.03307C24.4005 0.733272 22.6382 0.00211732 20.8 0H6.93333C5.09515 0.00211732 3.33286 0.733272 2.03307 2.03307C0.733271 3.33286 0.00211732 5.09515 0 6.93333L0 20.8C0.00211732 22.6382 0.733271 24.4005 2.03307 25.7003C3.33286 27.0001 5.09515 27.7312 6.93333 27.7333H20.1445L20.1536 27.7621C20.2533 28.0771 20.4445 28.3553 20.7029 28.5612C20.9612 28.7671 21.275 28.8915 21.6043 28.9184L24.7568 29.1451C24.7325 29.256 24.72 29.3691 24.7195 29.4827C24.7189 29.6929 24.76 29.9011 24.8405 30.0953C24.9209 30.2894 25.0392 30.4657 25.1883 30.6139L26.1051 31.5312C26.2533 31.6802 26.4296 31.7984 26.6237 31.8789C26.8179 31.9593 27.0261 32.0005 27.2363 32H30.4C30.8243 32 31.2313 31.8314 31.5314 31.5314C31.8314 31.2313 32 30.8244 32 30.4V27.2363C32.0004 27.0261 31.9592 26.8179 31.8787 26.6238C31.7982 26.4296 31.6801 26.2533 31.5312 26.1051L30.6133 25.1883ZM6.93333 26.6667C5.37796 26.6648 3.88682 26.0462 2.787 24.9463C1.68718 23.8465 1.0685 22.3554 1.06667 20.8V6.93333C1.0685 5.37796 1.68718 3.88682 2.787 2.787C3.88682 1.68718 5.37796 1.0685 6.93333 1.06667H20.8C22.3554 1.0685 23.8465 1.68718 24.9463 2.787C26.0462 3.88682 26.6648 5.37796 26.6667 6.93333V19.8096L19.8827 17.6763C19.8336 17.6603 19.7835 17.6512 19.7333 17.64V17.0667C19.7333 16.7838 19.621 16.5125 19.4209 16.3124C19.2209 16.1124 18.9496 16 18.6667 16H16.5333C16.2504 16 15.9791 16.1124 15.7791 16.3124C15.579 16.5125 15.4667 16.7838 15.4667 17.0667V18.6667H13.8667V8.53333C14.1496 8.53333 14.4209 8.42095 14.6209 8.22091C14.821 8.02088 14.9333 7.74957 14.9333 7.46667V5.33333C14.9333 5.05044 14.821 4.77913 14.6209 4.57909C14.4209 4.37905 14.1496 4.26667 13.8667 4.26667H8.53333C8.25044 4.26667 7.97913 4.37905 7.77909 4.57909C7.57905 4.77913 7.46667 5.05044 7.46667 5.33333V7.46667C7.46667 7.74957 7.57905 8.02088 7.77909 8.22091C7.97913 8.42095 8.25044 8.53333 8.53333 8.53333V20.8C8.53418 21.507 8.8154 22.1848 9.31532 22.6847C9.81523 23.1846 10.493 23.4658 11.2 23.4667H17.0667C17.6334 23.4683 18.1857 23.2883 18.6427 22.9531L19.8096 26.6667H6.93333ZM9.06667 7.46667H8.53333V5.33333H13.8667V7.46667H13.3333C13.1919 7.46667 13.0562 7.52286 12.9562 7.62288C12.8562 7.7229 12.8 7.85855 12.8 8V18.6667C12.8 18.9496 12.9124 19.2209 13.1124 19.4209C13.3125 19.621 13.5838 19.7333 13.8667 19.7333H15.4667C15.7496 19.7333 16.0209 19.621 16.2209 19.4209C16.421 19.2209 16.5333 18.9496 16.5333 18.6667V17.0667H18.6667V17.752C18.4643 17.8409 18.2801 17.9664 18.1232 18.1221C17.8947 18.3464 17.7323 18.6293 17.6537 18.9397C17.5752 19.2501 17.5835 19.5761 17.6779 19.8821L18.2848 21.8133C18.1382 21.9956 17.9528 22.1429 17.742 22.2443C17.5313 22.3458 17.3006 22.399 17.0667 22.4H11.2C10.7757 22.4 10.3687 22.2314 10.0686 21.9314C9.76857 21.6313 9.6 21.2243 9.6 20.8V8C9.6 7.85855 9.54381 7.7229 9.44379 7.62288C9.34377 7.52286 9.20812 7.46667 9.06667 7.46667ZM21.1733 27.4421L18.6955 19.5632C18.6833 19.5192 18.6762 19.4739 18.6741 19.4283L22.3387 23.0933C22.1598 23.4132 22.0738 23.7765 22.0903 24.1426C22.1068 24.5087 22.2252 24.8628 22.4322 25.1652C22.6391 25.4676 22.9263 25.7063 23.2615 25.8543C23.5967 26.0022 23.9666 26.0537 24.3295 26.0028C24.6924 25.952 25.0338 25.8008 25.3155 25.5664C25.5971 25.3319 25.8076 25.0235 25.9234 24.6759C26.0393 24.3283 26.0557 23.9552 25.971 23.5987C25.8862 23.2422 25.7036 22.9165 25.4437 22.6581C25.1352 22.3658 24.7424 22.1782 24.3212 22.1218C23.8999 22.0654 23.4716 22.1431 23.0971 22.344L19.4277 18.6747C19.4734 18.6767 19.5186 18.6838 19.5627 18.696L27.4421 21.1733C27.5537 21.2075 27.6526 21.2741 27.7262 21.3647C27.7997 21.4554 27.8445 21.5659 27.8549 21.6821L28.1216 25.4187L25.4144 28.1253L21.688 27.8587C21.5703 27.8491 21.4581 27.8043 21.3663 27.7299C21.2745 27.6556 21.2072 27.5553 21.1733 27.4421ZM24.0533 23.1536C24.2325 23.1519 24.408 23.204 24.5573 23.3029C24.7066 23.4019 24.8229 23.5434 24.8911 23.709C24.9593 23.8747 24.9764 24.0569 24.9401 24.2324C24.9038 24.4078 24.8158 24.5684 24.6875 24.6933C24.516 24.8536 24.2889 24.9409 24.0542 24.9367C23.8195 24.9325 23.5957 24.8371 23.4301 24.6708C23.2645 24.5044 23.1702 24.2802 23.167 24.0455C23.1639 23.8108 23.2522 23.5841 23.4133 23.4133C23.4977 23.3301 23.5977 23.2643 23.7075 23.2198C23.8173 23.1752 23.9348 23.1527 24.0533 23.1536ZM30.9333 30.4C30.9333 30.5415 30.8771 30.6771 30.7771 30.7771C30.6771 30.8771 30.5415 30.9333 30.4 30.9333H27.2363C27.0949 30.9329 26.9594 30.8768 26.8592 30.7771L25.9424 29.8597C25.8424 29.7597 25.7862 29.6241 25.7862 29.4827C25.7862 29.3412 25.8424 29.2056 25.9424 29.1056L29.1061 25.9424C29.2061 25.8426 29.3416 25.7865 29.4829 25.7865C29.6242 25.7865 29.7597 25.8426 29.8597 25.9424L30.7771 26.8592C30.8768 26.9594 30.9329 27.0949 30.9333 27.2363V30.4Z" stroke="#66509A" stroke-width="0.5" mask="url(#path-1-outside-1_281_49)"/>
</g>
<defs>
<clipPath id="clip0_281_49">
<rect width="32" height="32" fill="white"/>
</clipPath>
</defs>
</svg>
