<svg width="24" height="24" viewBox="0 0 24 24" fill="none" xmlns="http://www.w3.org/2000/svg">
<path d="M7 10.75H3C2.53603 10.7495 2.09122 10.5649 1.76315 10.2369C1.43507 9.90878 1.25053 9.46397 1.25 9V5C1.25053 4.53603 1.43507 4.09122 1.76315 3.76315C2.09122 3.43507 2.53603 3.25053 3 3.25H7C7.46397 3.25053 7.90878 3.43507 8.23685 3.76315C8.56493 4.09122 8.74947 4.53603 8.75 5V9C8.74947 9.46397 8.56493 9.90878 8.23685 10.2369C7.90878 10.5649 7.46397 10.7495 7 10.75ZM3 4.75C2.9337 4.75 2.87011 4.77634 2.82322 4.82322C2.77634 4.87011 2.75 4.9337 2.75 5V9C2.75 9.0663 2.77634 9.12989 2.82322 9.17678C2.87011 9.22366 2.9337 9.25 3 9.25H7C7.0663 9.25 7.12989 9.22366 7.17678 9.17678C7.22366 9.12989 7.25 9.0663 7.25 9V5C7.25 4.9337 7.22366 4.87011 7.17678 4.82322C7.12989 4.77634 7.0663 4.75 7 4.75H3Z" fill="white"/>
<path d="M7 20.75H3C2.53603 20.7495 2.09122 20.5649 1.76315 20.2369C1.43507 19.9088 1.25053 19.464 1.25 19V15C1.25053 14.536 1.43507 14.0912 1.76315 13.7631C2.09122 13.4351 2.53603 13.2505 3 13.25H7C7.46397 13.2505 7.90878 13.4351 8.23685 13.7631C8.56493 14.0912 8.74947 14.536 8.75 15V19C8.74947 19.464 8.56493 19.9088 8.23685 20.2369C7.90878 20.5649 7.46397 20.7495 7 20.75ZM3 14.75C2.9337 14.75 2.87011 14.7763 2.82322 14.8232C2.77634 14.8701 2.75 14.9337 2.75 15V19C2.75 19.0663 2.77634 19.1299 2.82322 19.1768C2.87011 19.2237 2.9337 19.25 3 19.25H7C7.0663 19.25 7.12989 19.2237 7.17678 19.1768C7.22366 19.1299 7.25 19.0663 7.25 19V15C7.25 14.9337 7.22366 14.8701 7.17678 14.8232C7.12989 14.7763 7.0663 14.75 7 14.75H3Z" fill="white"/>
<path d="M22 5.75H12C11.8011 5.75 11.6103 5.67098 11.4697 5.53033C11.329 5.38968 11.25 5.19891 11.25 5C11.25 4.80109 11.329 4.61032 11.4697 4.46967C11.6103 4.32902 11.8011 4.25 12 4.25H22C22.1989 4.25 22.3897 4.32902 22.5303 4.46967C22.671 4.61032 22.75 4.80109 22.75 5C22.75 5.19891 22.671 5.38968 22.5303 5.53033C22.3897 5.67098 22.1989 5.75 22 5.75Z" fill="white"/>
<path d="M18 9.75H12C11.8011 9.75 11.6103 9.67098 11.4697 9.53033C11.329 9.38968 11.25 9.19891 11.25 9C11.25 8.80109 11.329 8.61032 11.4697 8.46967C11.6103 8.32902 11.8011 8.25 12 8.25H18C18.1989 8.25 18.3897 8.32902 18.5303 8.46967C18.671 8.61032 18.75 8.80109 18.75 9C18.75 9.19891 18.671 9.38968 18.5303 9.53033C18.3897 9.67098 18.1989 9.75 18 9.75Z" fill="white"/>
<path d="M22 15.75H12C11.8011 15.75 11.6103 15.671 11.4697 15.5303C11.329 15.3897 11.25 15.1989 11.25 15C11.25 14.8011 11.329 14.6103 11.4697 14.4697C11.6103 14.329 11.8011 14.25 12 14.25H22C22.1989 14.25 22.3897 14.329 22.5303 14.4697C22.671 14.6103 22.75 14.8011 22.75 15C22.75 15.1989 22.671 15.3897 22.5303 15.5303C22.3897 15.671 22.1989 15.75 22 15.75Z" fill="white"/>
<path d="M18 19.75H12C11.8011 19.75 11.6103 19.671 11.4697 19.5303C11.329 19.3897 11.25 19.1989 11.25 19C11.25 18.8011 11.329 18.6103 11.4697 18.4697C11.6103 18.329 11.8011 18.25 12 18.25H18C18.1989 18.25 18.3897 18.329 18.5303 18.4697C18.671 18.6103 18.75 18.8011 18.75 19C18.75 19.1989 18.671 19.3897 18.5303 19.5303C18.3897 19.671 18.1989 19.75 18 19.75Z" fill="white"/>
</svg>
