<svg width="32" height="32" viewBox="0 0 32 32" fill="none" xmlns="http://www.w3.org/2000/svg">
<g clip-path="url(#clip0_284_234)">
<path d="M10.875 15H4.125C1.85044 15 0 13.1496 0 10.875V4.125C0 1.85044 1.85044 0 4.125 0H10.875C13.1496 0 15 1.85044 15 4.125V10.875C15 13.1496 13.1496 15 10.875 15ZM4.125 2C2.95325 2 2 2.95325 2 4.125V10.875C2 12.0468 2.95325 13 4.125 13H10.875C12.0468 13 13 12.0468 13 10.875V4.125C13 2.95325 12.0468 2 10.875 2H4.125Z" fill="#66509A"/>
<path d="M27.875 15H21.125C18.8504 15 17 13.1496 17 10.875V4.125C17 1.85044 18.8504 0 21.125 0H27.875C30.1496 0 32 1.85044 32 4.125V10.875C32 13.1496 30.1496 15 27.875 15ZM21.125 2C19.9532 2 19 2.95325 19 4.125V10.875C19 12.0468 19.9532 13 21.125 13H27.875C29.0468 13 30 12.0468 30 10.875V4.125C30 2.95325 29.0468 2 27.875 2H21.125Z" fill="#66509A"/>
<path d="M24.5 32C20.3645 32 17 28.6355 17 24.5C17 20.3645 20.3645 17 24.5 17C28.6355 17 32 20.3645 32 24.5C32 28.6355 28.6355 32 24.5 32ZM24.5 19C21.4673 19 19 21.4673 19 24.5C19 27.5327 21.4673 30 24.5 30C27.5327 30 30 27.5327 30 24.5C30 21.4673 27.5327 19 24.5 19Z" fill="#66509A"/>
<path d="M10.875 32H4.125C1.85044 32 0 30.1496 0 27.875V21.125C0 18.8504 1.85044 17 4.125 17H10.875C13.1496 17 15 18.8504 15 21.125V27.875C15 30.1496 13.1496 32 10.875 32ZM4.125 19C2.95325 19 2 19.9532 2 21.125V27.875C2 29.0468 2.95325 30 4.125 30H10.875C12.0468 30 13 29.0468 13 27.875V21.125C13 19.9532 12.0468 19 10.875 19H4.125Z" fill="#66509A"/>
</g>
<defs>
<clipPath id="clip0_284_234">
<rect width="32" height="32" fill="white"/>
</clipPath>
</defs>
</svg>
