<svg width="32" height="32" viewBox="0 0 32 32" fill="none" xmlns="http://www.w3.org/2000/svg">
<path d="M19.3547 1.25022L19.3474 1.24308C19.2128 1.10424 19.0271 1.02656 18.8333 1.02879C18.8094 1.02768 18.7853 1.02991 18.7619 1.03616H7.79318C5.82153 1.03661 4.22355 2.63482 4.22266 4.60668V27.4579C4.22355 29.4296 5.82153 31.0278 7.79318 31.0285H23.6965C25.6681 31.0278 27.2663 29.4296 27.267 27.4579V9.44796C27.2657 9.2589 27.1916 9.07743 27.0599 8.94127L19.3547 1.25022ZM19.5474 3.46405L24.846 8.74841H21.6898C20.5081 8.74484 19.5507 7.7877 19.5474 6.60623V3.46405ZM23.7036 29.5932H7.79318C6.61149 29.5899 5.65457 28.6325 5.65078 27.4508V4.59932C5.65457 3.41785 6.61149 2.46049 7.79318 2.45714H18.1193V6.60623C18.1199 8.57765 19.7181 10.1759 21.6898 10.1768H25.8389V27.4508C25.8411 28.632 24.8849 29.5916 23.7036 29.5932Z" fill="#66509A"/>
<path d="M8.8 14.8111H16.5196C16.9138 14.8111 17.2339 14.4915 17.2339 14.0971C17.2339 13.7026 16.9138 13.383 16.5196 13.383H8.8C8.40558 13.383 8.08594 13.7026 8.08594 14.0971C8.08594 14.4915 8.40558 14.8111 8.8 14.8111Z" fill="#66509A"/>
<path d="M22.6966 18.7816H8.8C8.40558 18.7816 8.08594 19.1013 8.08594 19.4957C8.08594 19.8899 8.40558 20.2098 8.8 20.2098H22.6966C23.0908 20.2098 23.4109 19.8899 23.4109 19.4957C23.4109 19.1013 23.0908 18.7816 22.6966 18.7816Z" fill="#66509A"/>
<path d="M22.6966 24.1874H8.8C8.40558 24.1874 8.08594 24.5071 8.08594 24.9015C8.08594 25.2959 8.40558 25.6155 8.8 25.6155H22.6966C23.0908 25.6155 23.4109 25.2959 23.4109 24.9015C23.4109 24.5071 23.0908 24.1874 22.6966 24.1874Z" fill="#66509A"/>
</svg>
