<svg width="32" height="32" viewBox="0 0 32 32" fill="none" xmlns="http://www.w3.org/2000/svg">
<path d="M17.091 31.9999H14.9092C13.5053 31.9999 12.3635 30.8581 12.3635 29.4545V19.6364H2.54537C1.14178 19.6364 0 18.4946 0 17.091V14.9092C0 13.5053 1.14178 12.3635 2.54537 12.3635H12.3635V2.54537C12.3635 1.14178 13.5053 0 14.9092 0H17.091C18.4946 0 19.6364 1.14178 19.6364 2.54537V12.3635H29.4545C30.8581 12.3635 31.9999 13.5053 31.9999 14.9092V17.091C31.9999 18.4946 30.8581 19.6364 29.4545 19.6364H19.6364V29.4545C19.6364 30.8581 18.4946 31.9999 17.091 31.9999ZM2.54537 14.5454C2.34482 14.5454 2.18182 14.7084 2.18182 14.9092V17.091C2.18182 17.2915 2.34482 17.4545 2.54537 17.4545H13.4545C14.0566 17.4545 14.5454 17.9433 14.5454 18.5455V29.4545C14.5454 29.6554 14.7084 29.8181 14.9092 29.8181H17.091C17.2915 29.8181 17.4545 29.6554 17.4545 29.4545V18.5455C17.4545 17.9433 17.9433 17.4545 18.5455 17.4545H29.4545C29.6554 17.4545 29.8181 17.2915 29.8181 17.091V14.9092C29.8181 14.7084 29.6554 14.5454 29.4545 14.5454H18.5455C17.9433 14.5454 17.4545 14.0566 17.4545 13.4545V2.54537C17.4545 2.34482 17.2915 2.18182 17.091 2.18182H14.9092C14.7084 2.18182 14.5454 2.34482 14.5454 2.54537V13.4545C14.5454 14.0566 14.0566 14.5454 13.4545 14.5454H2.54537Z" fill="#66509A"/>
</svg>
