<svg width="24" height="22" viewBox="0 0 24 22" fill="none" xmlns="http://www.w3.org/2000/svg">
<path d="M23.9076 8.78199L21.6621 5.23963C21.5999 5.14152 21.5077 5.05988 21.4021 5.01117L12.2687 0.699883C12.0992 0.619883 11.9025 0.621472 11.7343 0.704139L2.58592 5.20219C2.48992 5.24937 2.40541 5.32347 2.34592 5.41234L0.100432 8.76932C-0.0933632 9.05906 0.00294453 9.47199 0.30638 9.64558L2.24202 10.753V15.9206C2.24202 16.1489 2.36838 16.3583 2.57028 16.4649L11.7126 21.2888C11.8933 21.384 12.1169 21.3822 12.2961 21.284L21.4384 16.2677C21.7364 16.1041 21.8454 15.73 21.6819 15.4321C21.5183 15.1341 21.1441 15.0252 20.8461 15.1887L12.6155 19.7047V12.3373L14.2835 14.4286C14.4682 14.6602 14.814 14.7258 15.0705 14.5791L23.6935 9.64552C23.991 9.47527 24.0916 9.07234 23.9076 8.78199ZM12.0114 1.93952L19.7869 5.60983L11.9944 9.87958L4.21305 5.77378L12.0114 1.93952ZM3.06089 6.55758L11.0552 10.7757L9.08284 13.2488L1.49069 8.90506L3.06089 6.55758ZM3.47315 15.5495V11.4574L8.92941 14.5791C9.18571 14.7257 9.53197 14.6599 9.71643 14.4286L11.3844 12.3373V19.7238L3.47315 15.5495ZM14.9169 13.2488L12.9373 10.7665L20.9315 6.38624L22.523 8.89701L14.9169 13.2488Z" fill="#F1EBFF"/>
</svg>
