<svg width="32" height="32" viewBox="0 0 32 32" fill="none" xmlns="http://www.w3.org/2000/svg">
<g clip-path="url(#clip0_292_532)">
<mask id="mask0_292_532" style="mask-type:luminance" maskUnits="userSpaceOnUse" x="0" y="0" width="32" height="32">
<path d="M0 1.90735e-06H32V32H0V1.90735e-06Z" fill="white"/>
</mask>
<g mask="url(#mask0_292_532)">
<path d="M19.0125 4.33009C20.1176 4.61528 21.1614 5.05309 22.1199 5.61997C22.1199 5.61997 22.5817 5.15803 23.1004 4.63934C23.4771 4.26234 23.9881 4.05091 24.5209 4.05091C25.053 4.05091 25.5642 4.26234 25.9407 4.63934C26.3976 5.09628 26.9037 5.60234 27.3606 6.05928C27.7377 6.43584 27.9491 6.94697 27.9491 7.47916C27.9491 8.01191 27.7377 8.52297 27.3606 8.89953C26.8419 9.41822 26.3801 9.88009 26.3801 9.88009C26.9469 10.8386 27.3847 11.8824 27.6699 12.9875H29.0541C30.1633 12.9875 31.0625 13.8868 31.0625 14.9958V17.0042C31.0625 18.1133 30.1633 19.0125 29.0541 19.0125H27.6699C27.3847 20.1176 26.9469 21.1615 26.3801 22.1199C26.3801 22.1199 26.8419 22.5818 27.3606 23.1005C27.7377 23.4771 27.9491 23.9882 27.9491 24.5209C27.9491 25.0531 27.7377 25.5642 27.3606 25.9408C26.9037 26.3977 26.3976 26.9038 25.9407 27.3607C25.5642 27.7377 25.053 27.9491 24.5209 27.9491C23.9881 27.9491 23.4771 27.7377 23.1004 27.3607C22.5817 26.842 22.1199 26.3801 22.1199 26.3801C21.1614 26.9469 20.1176 27.3848 19.0125 27.6699V29.0542C19.0125 30.1633 18.1132 31.0625 17.0041 31.0625H14.9958C13.8867 31.0625 12.9875 30.1633 12.9875 29.0542V27.6699C11.8824 27.3848 10.8386 26.9469 9.88006 26.3801C9.88006 26.3801 9.41819 26.842 8.8995 27.3607C8.52294 27.7377 8.01181 27.9491 7.47913 27.9491C6.94694 27.9491 6.43575 27.7377 6.05925 27.3607C5.60238 26.9038 5.09625 26.3977 4.63931 25.9408C4.26231 25.5642 4.05088 25.0531 4.05088 24.5209C4.05088 23.9882 4.26231 23.4771 4.63931 23.1005C5.158 22.5818 5.61994 22.1199 5.61994 22.1199C5.05306 21.1615 4.61531 20.1176 4.33006 19.0125H2.94588C1.83675 19.0125 0.9375 18.1133 0.9375 17.0042V14.9958C0.9375 13.8868 1.83675 12.9875 2.94588 12.9875H4.33006C4.61531 11.8824 5.05306 10.8386 5.61994 9.88009C5.61994 9.88009 5.158 9.41822 4.63931 8.89953C4.26231 8.52297 4.05088 8.01191 4.05088 7.47916C4.05088 6.94697 4.26231 6.43584 4.63931 6.05928C5.09625 5.60234 5.60238 5.09628 6.05925 4.63934C6.43575 4.26234 6.94694 4.05091 7.47913 4.05091C8.01181 4.05091 8.52294 4.26234 8.8995 4.63934C9.41819 5.15803 9.88006 5.61997 9.88006 5.61997C10.8386 5.05309 11.8824 4.61528 12.9875 4.33009V2.94584C12.9875 1.83672 13.8867 0.937532 14.9958 0.937532H17.0041C18.1132 0.937532 19.0125 1.83672 19.0125 2.94584V4.33009Z" stroke="#66509A" stroke-width="2" stroke-miterlimit="10" stroke-linecap="round" stroke-linejoin="round"/>
<path d="M15.9996 9.97502C19.3249 9.97502 22.0246 12.6747 22.0246 16C22.0246 19.3253 19.3249 22.025 15.9996 22.025C12.6743 22.025 9.97461 19.3253 9.97461 16C9.97461 12.6747 12.6743 9.97502 15.9996 9.97502Z" stroke="#66509A" stroke-width="2" stroke-miterlimit="10" stroke-linecap="round" stroke-linejoin="round"/>
</g>
</g>
<defs>
<clipPath id="clip0_292_532">
<rect width="32" height="32" fill="white"/>
</clipPath>
</defs>
</svg>
