<svg width="24" height="24" viewBox="0 0 24 24" fill="none" xmlns="http://www.w3.org/2000/svg">
<path d="M21.5024 19.7915L20.4306 6.28603C20.3638 5.41594 19.6279 4.73433 18.7553 4.73433H16.6383V4.63917C16.6383 2.08111 14.5572 0 11.9991 0C9.44104 0 7.35993 2.08111 7.35993 4.63917V4.73433H5.24297C4.37029 4.73433 3.6344 5.41589 3.56784 6.2842L2.49572 19.7933C2.41275 20.8749 2.78798 21.9518 3.52514 22.7476C4.26229 23.5435 5.30728 24 6.39211 24H17.6061C18.6908 24 19.7359 23.5435 20.4731 22.7476C21.2102 21.9517 21.5854 20.8749 21.5024 19.7915ZM8.76572 4.63917C8.76572 2.85628 10.2163 1.40578 11.9991 1.40578C13.7819 1.40578 15.2325 2.85633 15.2325 4.63917V4.73433H8.76572V4.63917ZM19.4417 21.7924C18.9627 22.3095 18.3109 22.5942 17.6061 22.5942H6.39215C5.68734 22.5942 5.0355 22.3095 4.55653 21.7924C4.07761 21.2753 3.84351 20.6035 3.89732 19.9027L4.96936 6.39352C4.98023 6.25139 5.10042 6.14011 5.24297 6.14011H7.35993V7.87144C7.35993 8.25961 7.67465 8.57433 8.06282 8.57433C8.451 8.57433 8.76572 8.25961 8.76572 7.87144V6.14011H15.2325V7.87144C15.2325 8.25961 15.5472 8.57433 15.9354 8.57433C16.3236 8.57433 16.6383 8.25961 16.6383 7.87144V6.14011H18.7553C18.8978 6.14011 19.018 6.25144 19.029 6.39539L20.1008 19.9008C20.1547 20.6035 19.9206 21.2753 19.4417 21.7924Z" fill="#F1EBFF"/>
<path d="M15.1662 11.9196C14.8918 11.6451 14.4467 11.6451 14.1723 11.9196L11.0337 15.0582L9.82686 13.8513C9.55241 13.5768 9.10733 13.5768 8.83283 13.8513C8.55833 14.1258 8.55833 14.5709 8.83283 14.8454L10.5367 16.5492C10.6739 16.6865 10.8538 16.7552 11.0337 16.7552C11.2135 16.7552 11.3934 16.6865 11.5306 16.5492L15.1662 12.9137C15.4407 12.6392 15.4407 12.1941 15.1662 11.9196Z" fill="#F1EBFF"/>
</svg>
