<svg width="32" height="32" viewBox="0 0 32 32" fill="none" xmlns="http://www.w3.org/2000/svg">
<path d="M30.7776 6.08402L27.7776 4.08402C27.6954 4.02939 27.5989 4.00017 27.5001 4.00002H23.0001C22.8675 4.00002 22.7403 4.0527 22.6466 4.14646C22.5528 4.24023 22.5001 4.36741 22.5001 4.50002C22.5001 4.63263 22.5528 4.7598 22.6466 4.85357C22.7403 4.94734 22.8675 5.00002 23.0001 5.00002H27.3501L29.6001 6.50002L27.3501 8.00002H11.0001V5.00002H21.0001C21.1327 5.00002 21.2599 4.94734 21.3537 4.85357C21.4474 4.7598 21.5001 4.63263 21.5001 4.50002C21.5001 4.36741 21.4474 4.24023 21.3537 4.14646C21.2599 4.0527 21.1327 4.00002 21.0001 4.00002H18.0001V2.50002C18.0001 2.41876 17.9803 2.33873 17.9424 2.26686C17.9045 2.19498 17.8497 2.13343 17.7826 2.08752L16.3241 1.08752C16.2427 1.03176 16.1466 1.00135 16.0479 1.0001C15.9493 0.998855 15.8524 1.02684 15.7696 1.08052L14.2281 2.08052C14.1581 2.12588 14.1006 2.18803 14.0608 2.26129C14.021 2.33456 14.0001 2.41663 14.0001 2.50002V4.00002H10.5001C10.3675 4.00002 10.2403 4.0527 10.1466 4.14646C10.0528 4.24023 10.0001 4.36741 10.0001 4.50002V8.50002C10.0001 8.63263 10.0528 8.7598 10.1466 8.85357C10.2403 8.94734 10.3675 9.00002 10.5001 9.00002H14.0001V10H4.50011C4.40137 10.0002 4.30486 10.0294 4.22261 10.084L1.22261 12.084C1.15413 12.1297 1.09799 12.1915 1.05915 12.2641C1.02032 12.3367 1 12.4177 1 12.5C1 12.5823 1.02032 12.6634 1.05915 12.7359C1.09799 12.8085 1.15413 12.8704 1.22261 12.916L4.22261 14.916C4.30486 14.9706 4.40137 14.9999 4.50011 15H12.5001C12.6327 15 12.7599 14.9473 12.8537 14.8536C12.9474 14.7598 13.0001 14.6326 13.0001 14.5C13.0001 14.3674 12.9474 14.2402 12.8537 14.1465C12.7599 14.0527 12.6327 14 12.5001 14H4.65011L2.40011 12.5L4.65011 11H14.0001V23H13.5001C12.8373 23.0008 12.2019 23.2645 11.7332 23.7331C11.2646 24.2018 11.0009 24.8372 11.0001 25.5V27C11.0001 27.3978 10.8421 27.7794 10.5608 28.0607C10.2795 28.342 9.89794 28.5 9.50011 28.5H7.00011C6.8675 28.5 6.74033 28.5527 6.64656 28.6465C6.55279 28.7402 6.50011 28.8674 6.50011 29C6.50011 29.1326 6.55279 29.2598 6.64656 29.3536C6.74033 29.4473 6.8675 29.5 7.00011 29.5H9.50011C10.1629 29.4992 10.7983 29.2356 11.267 28.7669C11.7357 28.2982 11.9993 27.6628 12.0001 27V25.5C12.0001 25.1022 12.1581 24.7207 12.4395 24.4394C12.7208 24.1581 13.1023 24 13.5001 24H14.0001V30.5C14.0001 30.6326 14.0528 30.7598 14.1466 30.8536C14.2403 30.9473 14.3675 31 14.5001 31H17.5001C17.6327 31 17.7599 30.9473 17.8537 30.8536C17.9474 30.7598 18.0001 30.6326 18.0001 30.5V24H25.0001C25.6629 23.9992 26.2983 23.7356 26.767 23.2669C27.2357 22.7982 27.4993 22.1628 27.5001 21.5C27.5001 21.3674 27.4474 21.2402 27.3537 21.1465C27.2599 21.0527 27.1327 21 27.0001 21C26.8675 21 26.7403 21.0527 26.6466 21.1465C26.5528 21.2402 26.5001 21.3674 26.5001 21.5C26.5001 21.8978 26.3421 22.2794 26.0608 22.5607C25.7795 22.842 25.3979 23 25.0001 23H18.0001V22C18.0001 21.8674 17.9474 21.7402 17.8537 21.6465C17.7599 21.5527 17.6327 21.5 17.5001 21.5C17.3675 21.5 17.2403 21.5527 17.1466 21.6465C17.0528 21.7402 17.0001 21.8674 17.0001 22V30H15.0001V9.00002H27.5001C27.5989 8.99986 27.6954 8.97065 27.7776 8.91602L30.7776 6.91602C30.8461 6.87036 30.9022 6.8085 30.9411 6.73593C30.9799 6.66336 31.0002 6.58232 31.0002 6.50002C31.0002 6.41771 30.9799 6.33668 30.9411 6.26411C30.9022 6.19154 30.8461 6.12968 30.7776 6.08402ZM15.0001 2.77152L16.0341 2.10002L17.0001 2.76352V4.00002H15.0001V2.77152Z" fill="#66509A"/>
<path d="M21 6H13C12.8674 6 12.7402 6.05268 12.6464 6.14645C12.5527 6.24021 12.5 6.36739 12.5 6.5C12.5 6.63261 12.5527 6.75979 12.6464 6.85355C12.7402 6.94732 12.8674 7 13 7H21C21.1326 7 21.2598 6.94732 21.3536 6.85355C21.4473 6.75979 21.5 6.63261 21.5 6.5C21.5 6.36739 21.4473 6.24021 21.3536 6.14645C21.2598 6.05268 21.1326 6 21 6Z" fill="#66509A"/>
<path d="M27 7C27.1326 7 27.2598 6.94732 27.3536 6.85355C27.4473 6.75979 27.5 6.63261 27.5 6.5C27.5 6.36739 27.4473 6.24021 27.3536 6.14645C27.2598 6.05268 27.1326 6 27 6H25C24.8674 6 24.7402 6.05268 24.6464 6.14645C24.5527 6.24021 24.5 6.36739 24.5 6.5C24.5 6.63261 24.5527 6.75979 24.6464 6.85355C24.7402 6.94732 24.8674 7 25 7H27Z" fill="#66509A"/>
<path d="M10.5 12C10.3674 12 10.2402 12.0527 10.1464 12.1464C10.0527 12.2402 10 12.3674 10 12.5C10 12.6326 10.0527 12.7598 10.1464 12.8536C10.2402 12.9473 10.3674 13 10.5 13H12.5C12.6326 13 12.7598 12.9473 12.8536 12.8536C12.9473 12.7598 13 12.6326 13 12.5C13 12.3674 12.9473 12.2402 12.8536 12.1464C12.7598 12.0527 12.6326 12 12.5 12H10.5Z" fill="#66509A"/>
<path d="M4.5 12C4.36739 12 4.24021 12.0527 4.14645 12.1464C4.05268 12.2402 4 12.3674 4 12.5C4 12.6326 4.05268 12.7598 4.14645 12.8536C4.24021 12.9473 4.36739 13 4.5 13H6.5C6.63261 13 6.75979 12.9473 6.85355 12.8536C6.94732 12.7598 7 12.6326 7 12.5C7 12.3674 6.94732 12.2402 6.85355 12.1464C6.75979 12.0527 6.63261 12 6.5 12H4.5Z" fill="#66509A"/>
<path d="M23 7C23.2761 7 23.5 6.77614 23.5 6.5C23.5 6.22386 23.2761 6 23 6C22.7239 6 22.5 6.22386 22.5 6.5C22.5 6.77614 22.7239 7 23 7Z" fill="#66509A"/>
<path d="M8.5 13C8.77614 13 9 12.7761 9 12.5C9 12.2239 8.77614 12 8.5 12C8.22386 12 8 12.2239 8 12.5C8 12.7761 8.22386 13 8.5 13Z" fill="#66509A"/>
<path d="M19.5 13C19.7761 13 20 12.7761 20 12.5C20 12.2239 19.7761 12 19.5 12C19.2239 12 19 12.2239 19 12.5C19 12.7761 19.2239 13 19.5 13Z" fill="#66509A"/>
<path d="M19.5 15H21.5C21.6326 15 21.7598 14.9473 21.8536 14.8536C21.9473 14.7598 22 14.6326 22 14.5V10.5C22 10.3674 21.9473 10.2402 21.8536 10.1464C21.7598 10.0527 21.6326 10 21.5 10H17.5C17.3674 10 17.2402 10.0527 17.1464 10.1464C17.0527 10.2402 17 10.3674 17 10.5V20C17 20.1326 17.0527 20.2598 17.1464 20.3536C17.2402 20.4473 17.3674 20.5 17.5 20.5C17.6326 20.5 17.7598 20.4473 17.8536 20.3536C17.9473 20.2598 18 20.1326 18 20V11H21V14H19.5C19.3674 14 19.2402 14.0527 19.1464 14.1464C19.0527 14.2402 19 14.3674 19 14.5C19 14.6326 19.0527 14.7598 19.1464 14.8536C19.2402 14.9473 19.3674 15 19.5 15Z" fill="#66509A"/>
<path d="M25.5 14.5C25.5 14.7967 25.588 15.0867 25.7528 15.3334C25.9176 15.58 26.1519 15.7723 26.426 15.8858C26.7001 15.9994 27.0017 16.0291 27.2926 15.9712C27.5836 15.9133 27.8509 15.7704 28.0607 15.5607C28.2704 15.3509 28.4133 15.0836 28.4712 14.7926C28.5291 14.5017 28.4994 14.2001 28.3858 13.926C28.2723 13.6519 28.08 13.4176 27.8334 13.2528C27.5867 13.088 27.2967 13 27 13C26.6022 13 26.2206 13.158 25.9393 13.4393C25.658 13.7206 25.5 14.1022 25.5 14.5ZM27.5 14.5C27.5 14.5989 27.4707 14.6956 27.4157 14.7778C27.3608 14.86 27.2827 14.9241 27.1913 14.9619C27.1 14.9998 26.9994 15.0097 26.9025 14.9904C26.8055 14.9711 26.7164 14.9235 26.6464 14.8536C26.5765 14.7836 26.5289 14.6945 26.5096 14.5975C26.4903 14.5006 26.5002 14.4 26.5381 14.3087C26.5759 14.2173 26.64 14.1392 26.7222 14.0843C26.8044 14.0293 26.9011 14 27 14C27.1326 14 27.2598 14.0527 27.3536 14.1464C27.4473 14.2402 27.5 14.3674 27.5 14.5Z" fill="#66509A"/>
<path d="M28.9545 12.172C28.9046 12.2146 28.8635 12.2667 28.8337 12.3252C28.8039 12.3837 28.7859 12.4475 28.7807 12.513C28.7756 12.5785 28.7834 12.6443 28.8037 12.7068C28.824 12.7692 28.8564 12.8271 28.899 12.877C29.2862 13.3292 29.4993 13.9047 29.5 14.5C29.5 16.274 27.7395 18.1265 27 18.826C26.2605 18.126 24.5 16.276 24.5 14.5C24.4986 14.1326 24.5785 13.7695 24.7339 13.4367C24.8894 13.1039 25.1165 12.8095 25.3991 12.5748C25.6817 12.34 26.0126 12.1707 26.3684 12.079C26.7241 11.9872 27.0957 11.9753 27.4565 12.044C27.5211 12.0559 27.5874 12.0549 27.6516 12.0412C27.7158 12.0275 27.7767 12.0012 27.8307 11.964C27.8848 11.9267 27.931 11.8792 27.9667 11.824C28.0024 11.7689 28.0269 11.7073 28.0388 11.6427C28.0506 11.5782 28.0497 11.5119 28.036 11.4477C28.0222 11.3835 27.996 11.3226 27.9587 11.2685C27.9215 11.2144 27.8739 11.1682 27.8188 11.1326C27.7637 11.0969 27.7021 11.0724 27.6375 11.0605C27.1324 10.9652 26.6125 10.9827 26.1149 11.1116C25.6174 11.2405 25.1544 11.4778 24.7592 11.8063C24.3639 12.1349 24.0461 12.5467 23.8284 13.0124C23.6108 13.478 23.4986 13.986 23.5 14.5C23.5 17.203 26.55 19.776 26.68 19.884C26.7699 19.9588 26.8831 19.9998 27 19.9998C27.1169 19.9998 27.2302 19.9588 27.32 19.884C27.45 19.776 30.5 17.203 30.5 14.5C30.4993 13.6666 30.2013 12.8608 29.6595 12.2275C29.6169 12.1775 29.5648 12.1365 29.5063 12.1067C29.4478 12.0769 29.384 12.0589 29.3185 12.0537C29.253 12.0486 29.1872 12.0563 29.1247 12.0766C29.0623 12.0969 29.0044 12.1293 28.9545 12.172Z" fill="#66509A"/>
<path d="M3 24C3 24.2967 3.08797 24.5867 3.2528 24.8334C3.41762 25.08 3.65189 25.2723 3.92597 25.3858C4.20006 25.4994 4.50166 25.5291 4.79264 25.4712C5.08361 25.4133 5.35088 25.2704 5.56066 25.0607C5.77044 24.8509 5.9133 24.5836 5.97118 24.2926C6.02906 24.0017 5.99935 23.7001 5.88582 23.426C5.77229 23.1519 5.58003 22.9176 5.33336 22.7528C5.08668 22.588 4.79667 22.5 4.5 22.5C4.10218 22.5 3.72064 22.658 3.43934 22.9393C3.15804 23.2206 3 23.6022 3 24ZM5 24C5 24.0989 4.97068 24.1956 4.91573 24.2778C4.86079 24.36 4.7827 24.4241 4.69134 24.4619C4.59998 24.4998 4.49945 24.5097 4.40245 24.4904C4.30546 24.4711 4.21637 24.4235 4.14645 24.3536C4.07652 24.2836 4.0289 24.1945 4.00961 24.0975C3.99031 24.0006 4.00022 23.9 4.03806 23.8087C4.0759 23.7173 4.13999 23.6392 4.22221 23.5843C4.30444 23.5293 4.40111 23.5 4.5 23.5C4.63261 23.5 4.75979 23.5527 4.85355 23.6464C4.94732 23.7402 5 23.8674 5 24Z" fill="#66509A"/>
<path d="M7.15951 21.7275C7.11683 21.6776 7.06474 21.6365 7.0062 21.6067C6.94766 21.5769 6.88382 21.5589 6.81833 21.5538C6.75284 21.5487 6.68698 21.5565 6.62452 21.5768C6.56205 21.5971 6.5042 21.6296 6.45426 21.6722C6.40433 21.7149 6.36329 21.767 6.33349 21.8256C6.30369 21.8841 6.28571 21.9479 6.28058 22.0134C6.27545 22.0789 6.28326 22.1448 6.30359 22.2072C6.32391 22.2697 6.35633 22.3276 6.39901 22.3775C6.78608 22.8296 6.99918 23.4049 7.00001 24C7.00001 25.774 5.23951 27.6265 4.50001 28.326C3.76051 27.626 2.00001 25.776 2.00001 24C1.99861 23.6326 2.07849 23.2695 2.23393 22.9367C2.38937 22.6039 2.61651 22.3095 2.89908 22.0748C3.18165 21.84 3.51265 21.6707 3.86835 21.579C4.22405 21.4872 4.59565 21.4753 4.95651 21.544C5.02109 21.5559 5.08738 21.5549 5.15159 21.5412C5.2158 21.5275 5.27667 21.5012 5.33074 21.464C5.38481 21.4267 5.43101 21.3792 5.4667 21.324C5.50239 21.2689 5.52688 21.2073 5.53876 21.1427C5.55065 21.0782 5.5497 21.0119 5.53596 20.9477C5.52223 20.8835 5.49599 20.8226 5.45873 20.7685C5.42147 20.7144 5.37392 20.6682 5.31881 20.6326C5.26369 20.5969 5.20209 20.5724 5.13751 20.5605C4.63242 20.4652 4.11251 20.4827 3.61495 20.6116C3.11738 20.7405 2.65442 20.9778 2.25916 21.3063C1.8639 21.6349 1.54608 22.0467 1.32842 22.5124C1.11075 22.978 0.998615 23.486 1.00001 24C1.00001 26.703 4.05001 29.276 4.18001 29.384C4.26986 29.4588 4.38309 29.4998 4.50001 29.4998C4.61694 29.4998 4.73017 29.4588 4.82001 29.384C4.95001 29.276 8.00001 26.703 8.00001 24C7.99934 23.1666 7.7013 22.3608 7.15951 21.7275Z" fill="#66509A"/>
</svg>
