<svg width="105" height="105" viewBox="0 0 105 105" fill="none" xmlns="http://www.w3.org/2000/svg">
<path d="M29.3338 68.8979L31.3376 72.9578C31.3814 73.0466 31.4661 73.1081 31.564 73.1223L36.0445 73.7732C36.2912 73.8091 36.3896 74.1122 36.2112 74.2863L32.9691 77.4465C32.8982 77.5156 32.866 77.6151 32.8826 77.7127L33.648 82.1752C33.69 82.4208 33.4322 82.6083 33.2115 82.4922L29.2041 80.3855C29.1166 80.3395 29.0118 80.3395 28.9244 80.3855L24.917 82.492C24.6964 82.6079 24.4384 82.4209 24.4806 82.175L25.246 77.7125C25.2628 77.6149 25.2304 77.5152 25.1594 77.4463L21.9174 74.2861C21.7387 74.1122 21.8374 73.8089 22.0841 73.773L26.5646 73.1221C26.6626 73.1079 26.7473 73.0462 26.791 72.9576L28.7948 68.8977C28.9047 68.6744 29.2234 68.6744 29.3338 68.8979Z" fill="#F9DE8F"/>
<path d="M83.7947 87.3176L85.7985 91.3775C85.8424 91.4662 85.9271 91.5278 86.0249 91.5419L90.5054 92.1928C90.7521 92.2287 90.8506 92.5318 90.6721 92.7059L87.4301 95.8662C87.3591 95.9353 87.3269 96.0347 87.3435 96.1324L88.1089 100.595C88.1509 100.841 87.8931 101.028 87.6725 100.912L83.6651 98.8051C83.5775 98.7592 83.4727 98.7592 83.3854 98.8051L79.378 100.912C79.1573 101.028 78.8993 100.841 78.9416 100.595L79.7069 96.1324C79.7237 96.0347 79.6913 95.9351 79.6204 95.8662L76.3783 92.7059C76.1997 92.532 76.2983 92.2287 76.545 92.1928L81.0255 91.5419C81.1236 91.5278 81.2083 91.466 81.252 91.3775L83.2558 87.3176C83.3653 87.094 83.6842 87.094 83.7947 87.3176Z" fill="#F9DE8F"/>
<path d="M32.7113 43.3413C35.4341 43.3413 37.6413 41.134 37.6413 38.4112C37.6413 35.6885 35.4341 33.4812 32.7113 33.4812C29.9885 33.4812 27.7812 35.6885 27.7812 38.4112C27.7812 41.134 29.9885 43.3413 32.7113 43.3413Z" fill="#67D1D3"/>
<path d="M67.9398 26.0239C70.6626 26.0239 72.8698 23.8166 72.8698 21.0939C72.8698 18.3711 70.6626 16.1638 67.9398 16.1638C65.217 16.1638 63.0098 18.3711 63.0098 21.0939C63.0098 23.8166 65.217 26.0239 67.9398 26.0239Z" fill="#67D1D3"/>
<path d="M98.1332 54.9492C100.856 54.9492 103.063 52.7419 103.063 50.0191C103.063 47.2964 100.856 45.0891 98.1332 45.0891C95.4104 45.0891 93.2031 47.2964 93.2031 50.0191C93.2031 52.7419 95.4104 54.9492 98.1332 54.9492Z" fill="#F09EA0"/>
<path d="M23.7633 58.91C24.8332 58.91 25.7005 58.0427 25.7005 56.9728C25.7005 55.9029 24.8332 55.0356 23.7633 55.0356C22.6935 55.0356 21.8262 55.9029 21.8262 56.9728C21.8262 58.0427 22.6935 58.91 23.7633 58.91Z" fill="#F9DE8F"/>
<path d="M45.4252 95.9843C45.409 95.9843 45.3934 95.9843 45.3772 95.9837C44.3083 95.9577 43.463 95.0703 43.4889 94.0017C43.567 90.7684 45.9077 88.7568 47.7881 87.1406C49.6459 85.5441 50.7767 84.4668 50.8167 82.9675C50.8618 81.2779 49.4736 79.844 47.8658 78.1839C45.959 76.2143 43.7975 73.9825 43.922 70.7581C44.0458 67.5337 46.4059 65.6236 48.302 64.0888C50.0931 62.6387 51.194 61.6789 51.2477 60.2824C51.3068 58.7486 49.9902 57.3965 48.4659 55.831C46.524 53.8362 44.3225 51.5756 44.3508 48.1537C44.3791 44.7021 46.6559 42.5274 48.6642 40.6085C50.2835 39.0617 51.6817 37.7258 51.6827 36.0343C51.6837 34.2631 50.183 32.8671 48.4454 31.2509C46.3866 29.3359 44.0532 27.1652 44.0934 23.823C44.1332 20.4608 46.5242 18.3748 48.6332 16.5344C50.5814 14.8343 51.7649 13.6984 51.7698 12.259C51.775 10.8386 50.6171 9.71398 48.7095 8.03071C48.4827 7.83035 48.2552 7.62978 48.0307 7.42758C47.2362 6.71207 47.1722 5.48796 47.8873 4.6935C48.6037 3.89883 49.8274 3.83546 50.6214 4.55056C50.8363 4.74415 51.0541 4.9361 51.2713 5.12764C53.3251 6.94011 55.6534 8.99436 55.6419 12.2729C55.63 15.5683 53.2655 17.6316 51.179 19.452C49.1912 21.1864 47.9829 22.3491 47.9649 23.8696C47.9456 25.4981 49.3996 26.8504 51.0826 28.4161C53.1795 30.367 55.5566 32.5778 55.5545 36.037C55.5525 39.383 53.3139 41.5215 51.339 43.4087C49.6748 44.9984 48.2374 46.3716 48.2226 48.1863C48.2075 50.0162 49.6129 51.4594 51.2397 53.1307C53.1145 55.0558 55.2391 57.2382 55.1165 60.4317C54.9928 63.6548 52.6336 65.5643 50.7379 67.0991C48.9457 68.5498 47.8447 69.5098 47.7907 70.908C47.7303 72.4787 49.0821 73.875 50.6475 75.4915C52.5826 77.4901 54.7759 79.7552 54.6869 83.0719C54.5981 86.3939 52.2212 88.4365 50.3118 90.0779C48.4976 91.6373 47.3935 92.6855 47.3593 94.0962C47.3342 95.148 46.4727 95.9843 45.4252 95.9843Z" fill="#F09EA0"/>
<path d="M12.5807 50.1055C12.5754 50.1055 12.5699 50.1055 12.5645 50.1055C11.4951 50.0967 10.6356 49.2231 10.6446 48.1538C10.6729 44.7022 12.9497 42.5274 14.958 40.6084C16.5773 39.0616 17.9755 37.7257 17.9765 36.0342C17.9775 34.263 16.4768 32.867 14.7392 31.2508C12.6804 29.3358 10.347 27.1653 10.3872 23.8231C10.4272 20.4609 12.818 18.3749 14.927 16.5345C16.8752 14.8348 18.0587 13.6985 18.0637 12.2591C18.0688 10.8381 16.9107 9.71347 15.0029 8.0302C14.7761 7.83025 14.5488 7.62968 14.3245 7.42748C13.53 6.71217 13.466 5.48786 14.1811 4.6934C14.8965 3.89873 16.1212 3.83515 16.9152 4.55005C17.1299 4.74344 17.3473 4.93518 17.5645 5.12652C19.619 6.93899 21.9472 8.99344 21.9357 12.2726C21.924 15.568 19.5593 17.6313 17.4728 19.4517C15.4852 21.1861 14.2771 22.3488 14.2587 23.8693C14.2394 25.4976 15.6934 26.8499 17.3764 28.4158C19.4734 30.3667 21.8504 32.5774 21.8483 36.0367C21.8463 39.3827 19.6077 41.5212 17.6328 43.4084C15.9686 44.9981 14.5312 46.3713 14.5164 48.186C14.5076 49.2496 13.6424 50.1055 12.5807 50.1055Z" fill="#F9DE8F"/>
<path d="M79.6012 72.7684C79.576 72.7684 79.551 72.7678 79.5254 72.7672C78.4569 72.726 77.6243 71.8265 77.6655 70.7582C77.7894 67.5338 80.1494 65.6237 82.0456 64.089C83.8367 62.6389 84.9375 61.6791 84.9913 60.2825C85.0503 58.7488 83.7337 57.3967 82.2094 55.8311C80.2675 53.8364 78.066 51.5758 78.0943 48.1539C78.1226 44.7023 80.3994 42.5276 82.4077 40.6087C84.027 39.0618 85.4252 37.726 85.4262 36.0345C85.4273 34.2632 83.9265 32.8673 82.1889 31.2511C80.1301 29.3361 77.7968 27.1653 77.837 23.8232C77.8768 20.461 80.2677 18.3749 82.3767 16.5346C84.325 14.8349 85.5085 13.6986 85.5134 12.2591C85.5185 10.8388 84.3607 9.71415 82.453 8.03088C82.2262 7.83052 81.9988 7.62996 81.7738 7.42775C80.9796 6.71224 80.9156 5.48814 81.6309 4.69367C82.3464 3.8992 83.5707 3.83563 84.3652 4.55073C84.5799 4.74432 84.7975 4.93628 85.0149 5.12782C87.0687 6.94028 89.3969 8.99453 89.3854 12.2731C89.3735 15.5685 87.009 17.6317 84.9226 19.4522C82.9348 21.1865 81.7265 22.3493 81.7084 23.8698C81.6891 25.4983 83.1431 26.8505 84.8262 28.4163C86.9231 30.3672 89.3001 32.5779 89.2981 36.0372C89.296 39.3832 87.0574 41.5217 85.0825 43.4088C83.4183 44.9986 81.9809 46.3718 81.9662 48.1865C81.951 50.0164 83.3564 51.4597 84.9833 53.1309C86.8581 55.056 88.9827 57.2384 88.86 60.4318C88.7364 63.655 86.3772 65.5645 84.4815 67.0993C82.6893 68.55 81.5882 69.5099 81.5343 70.9082C81.4943 71.9497 80.6361 72.7684 79.6012 72.7684Z" fill="#67D1D3"/>
<path d="M1.93715 15.8125C3.00701 15.8125 3.87431 14.9452 3.87431 13.8754C3.87431 12.8055 3.00701 11.9382 1.93715 11.9382C0.867293 11.9382 0 12.8055 0 13.8754C0 14.9452 0.867293 15.8125 1.93715 15.8125Z" fill="#F9DE8F"/>
<path d="M67.9411 43.3404C69.0109 43.3404 69.8782 42.4731 69.8782 41.4032C69.8782 40.3334 69.0109 39.4661 67.9411 39.4661C66.8712 39.4661 66.0039 40.3334 66.0039 41.4032C66.0039 42.4731 66.8712 43.3404 67.9411 43.3404Z" fill="#F09EA0"/>
<path d="M103.062 9.34892C104.132 9.34892 104.999 8.48162 104.999 7.41176C104.999 6.3419 104.132 5.47461 103.062 5.47461C101.992 5.47461 101.125 6.3419 101.125 7.41176C101.125 8.48162 101.992 9.34892 103.062 9.34892Z" fill="#67D1D3"/>
<path d="M12.3239 97.5584C13.3937 97.5584 14.261 96.6911 14.261 95.6212C14.261 94.5514 13.3937 93.6841 12.3239 93.6841C11.254 93.6841 10.3867 94.5514 10.3867 95.6212C10.3867 96.6911 11.254 97.5584 12.3239 97.5584Z" fill="#F09EA0"/>
<path d="M97.193 80.5896C98.2629 80.5896 99.1302 79.7223 99.1302 78.6525C99.1302 77.5826 98.2629 76.7153 97.193 76.7153C96.1232 76.7153 95.2559 77.5826 95.2559 78.6525C95.2559 79.7223 96.1232 80.5896 97.193 80.5896Z" fill="#F09EA0"/>
<path d="M64.9489 78.6538C66.0187 78.6538 66.886 77.7866 66.886 76.7167C66.886 75.6468 66.0187 74.7795 64.9489 74.7795C63.879 74.7795 63.0117 75.6468 63.0117 76.7167C63.0117 77.7866 63.879 78.6538 64.9489 78.6538Z" fill="#67D1D3"/>
<path d="M3.87465 61.5328C4.94451 61.5328 5.81181 60.6655 5.81181 59.5956C5.81181 58.5257 4.94451 57.6584 3.87465 57.6584C2.80479 57.6584 1.9375 58.5257 1.9375 59.5956C1.9375 60.6655 2.80479 61.5328 3.87465 61.5328Z" fill="#67D1D3"/>
<path d="M36.3024 13.2234C37.3722 13.2234 38.2395 12.3561 38.2395 11.2863C38.2395 10.2164 37.3722 9.34912 36.3024 9.34912C35.2325 9.34912 34.3652 10.2164 34.3652 11.2863C34.3652 12.3561 35.2325 13.2234 36.3024 13.2234Z" fill="#67D1D3"/>
</svg>
