<svg width="32" height="32" viewBox="0 0 32 32" fill="none" xmlns="http://www.w3.org/2000/svg">
<path d="M27.5645 13.2277H27.4853V11.2871C27.4853 5.05342 22.432 0 16.1982 0C9.96441 0 4.91106 5.05342 4.91106 11.2871V13.2277H4.43584C2.69325 13.2277 1.34673 14.7722 1.34673 16.5545V21.505C1.30284 23.2323 2.66762 24.6682 4.39498 24.7121C4.40862 24.7125 4.42219 24.7127 4.43584 24.7128H7.36651C7.78162 24.6934 8.10235 24.3409 8.08279 23.9258C8.08211 23.9109 8.08097 23.896 8.07938 23.8811V14.1782C8.07938 13.7029 7.80216 13.2276 7.36651 13.2276H6.49522V11.2871C6.49522 5.92828 10.8394 1.58408 16.1982 1.58408C21.5569 1.58408 25.9011 5.92828 25.9011 11.2871V13.2276H25.0299C24.5942 13.2276 24.317 13.7029 24.317 14.1782V23.8811C24.2728 24.2943 24.5719 24.6652 24.9851 24.7094C25 24.711 25.0149 24.7121 25.0299 24.7128H25.9407L25.8615 24.8316C24.6731 26.4109 22.8083 27.336 20.8318 27.3266C20.3991 25.2049 18.3283 23.8356 16.2066 24.2684C14.3922 24.6384 13.0841 26.2274 13.0694 28.0791C13.0911 30.2509 14.858 32 17.0298 31.9998C18.105 31.9824 19.1298 31.5412 19.8813 30.7721C20.3883 30.2529 20.7206 29.5883 20.8318 28.8711C23.307 28.8805 25.6412 27.7207 27.1288 25.7424L27.8813 24.6335C29.5843 24.5147 30.6536 23.4454 30.6536 21.9008V16.9503C30.6536 15.2475 29.3863 13.2277 27.5645 13.2277ZM6.49522 23.1287H4.43584C3.58304 23.1079 2.90853 22.3998 2.9293 21.547C2.92968 21.533 2.93021 21.519 2.93089 21.5049V16.5544C2.93089 15.6435 3.56454 14.8118 4.43584 14.8118H6.49522V23.1287ZM18.7329 29.6633C18.2939 30.1392 17.6773 30.4117 17.0299 30.4158C15.7414 30.3954 14.6957 29.3672 14.6537 28.0792C14.6531 26.7887 15.6989 25.7421 16.9894 25.7416C18.2798 25.7411 19.3264 26.7868 19.3269 28.0773C19.3269 28.0779 19.3269 28.0786 19.3269 28.0792C19.3599 28.6672 19.1443 29.242 18.7329 29.6633ZM29.0695 21.901C29.0695 22.9703 28.0397 23.1287 27.5645 23.1287H25.9011V14.8119H27.5645C28.4358 14.8119 29.0695 16.0396 29.0695 16.9505V21.901Z" fill="#66509A"/>
</svg>
