<svg width="32" height="32" viewBox="0 0 32 32" fill="none" xmlns="http://www.w3.org/2000/svg">
<path d="M31.7966 15.3776C31.5108 14.9865 24.6993 5.80219 15.9998 5.80219C7.30039 5.80219 0.488626 14.9865 0.203063 15.3772C-0.0676876 15.7482 -0.0676876 16.2514 0.203063 16.6224C0.488626 17.0135 7.30039 26.1978 15.9998 26.1978C24.6993 26.1978 31.5108 17.0134 31.7966 16.6227C32.0678 16.2518 32.0678 15.7482 31.7966 15.3776ZM15.9998 24.0879C9.59177 24.0879 4.0417 17.9921 2.39875 15.9993C4.03957 14.0047 9.57802 7.91206 15.9998 7.91206C22.4076 7.91206 27.9573 14.0068 29.6009 16.0007C27.9601 17.9952 22.4217 24.0879 15.9998 24.0879Z" fill="#66509A"/>
<path d="M15.9996 9.67035C12.5095 9.67035 9.66992 12.5099 9.66992 16C9.66992 19.4902 12.5095 22.3297 15.9996 22.3297C19.4898 22.3297 22.3293 19.4902 22.3293 16C22.3293 12.5099 19.4898 9.67035 15.9996 9.67035ZM15.9996 20.2198C13.6727 20.2198 11.7799 18.3269 11.7799 16C11.7799 13.6732 13.6728 11.7803 15.9996 11.7803C18.3264 11.7803 20.2194 13.6732 20.2194 16C20.2194 18.3269 18.3265 20.2198 15.9996 20.2198Z" fill="#66509A"/>
</svg>
