<svg width="32" height="32" viewBox="0 0 32 32" fill="none" xmlns="http://www.w3.org/2000/svg">
<g clip-path="url(#clip0_298_577)">
<path d="M16 32C7.18108 32 0 24.8189 0 16C0 7.18108 7.18108 0 16 0C24.8189 0 32 7.18108 32 16C32 24.8189 24.8189 32 16 32ZM16 1.52372C8.01897 1.52372 1.52372 8.01897 1.52372 16C1.52372 23.981 8.01897 30.4763 16 30.4763C23.981 30.4763 30.4763 23.981 30.4763 16C30.4763 8.01897 23.981 1.52372 16 1.52372Z" fill="#66509A"/>
<path d="M10.666 7.61914H20.5709V9.14286H10.666V7.61914Z" fill="#66509A"/>
<path d="M2.80078 7.61914H9.14369V9.14286H2.80078V7.61914Z" fill="#66509A"/>
<path d="M21.4473 29.6465L29.6956 10.6766L31.0929 11.2843L22.8446 30.2542L21.4473 29.6465Z" fill="#66509A"/>
<path d="M10.5469 30.1797L15.6281 18.4938L17.0257 19.1015L11.9445 30.7874L10.5469 30.1797Z" fill="#66509A"/>
<path d="M11.8652 8.6532L13.2999 8.13953L21.24 30.315L19.8052 30.8287L11.8652 8.6532Z" fill="#66509A"/>
<path d="M1.13086 10.598L2.56557 10.0843L9.387 29.1362L7.95229 29.6499L1.13086 10.598Z" fill="#66509A"/>
<path d="M5.76562 8.65204L7.20034 8.13837L13.683 26.2441L12.2483 26.7578L5.76562 8.65204Z" fill="#66509A"/>
<path d="M17.1934 8.6554L18.6281 8.14172L24.767 25.2874L23.3323 25.801L17.1934 8.6554Z" fill="#66509A"/>
<path d="M27.8952 18.6381L26.4951 18.0284C26.6095 17.762 26.6664 17.4001 26.6664 16.9143C26.6745 16.3864 26.557 15.8641 26.3237 15.3903L24.0855 11.0667C23.47 9.87051 23.466 8.45142 24.0754 7.25165C24.6845 6.05215 25.8327 5.21817 27.1616 5.00946L27.3999 6.5142C26.1072 6.72319 25.1538 7.83368 25.1427 9.14283C25.1413 9.56694 25.2426 9.98519 25.4379 10.3619L27.6759 14.6858C28.021 15.3741 28.1971 16.1347 28.1904 16.9048C28.1904 17.6191 28.095 18.1618 27.8952 18.6381Z" fill="#66509A"/>
</g>
<defs>
<clipPath id="clip0_298_577">
<rect width="32" height="32" fill="white"/>
</clipPath>
</defs>
</svg>
