<svg width="34" height="20" viewBox="0 0 34 20" fill="none" xmlns="http://www.w3.org/2000/svg">
<path d="M1.07578 4.53132L15.7758 19.2751C15.9508 19.4501 16.1404 19.5743 16.3445 19.6478C16.5487 19.7213 16.7674 19.7575 17.0008 19.7563C17.2341 19.7563 17.4529 19.7202 17.657 19.6478C17.8612 19.5755 18.0508 19.4512 18.2258 19.2751L32.9695 4.53132C33.3779 4.12299 33.582 3.61257 33.582 3.00007C33.582 2.38757 33.3633 1.86257 32.9258 1.42507C32.4883 0.987574 31.9779 0.768824 31.3945 0.768824C30.8112 0.768824 30.3008 0.987574 29.8633 1.42507L17.0008 14.2876L4.13828 1.42507C3.72995 1.01674 3.22653 0.812572 2.62803 0.812572C2.02953 0.812572 1.51211 1.03132 1.07578 1.46882C0.638279 1.90632 0.419529 2.41674 0.419529 3.00007C0.419529 3.58341 0.638279 4.09382 1.07578 4.53132Z" fill="#00C9A4"/>
</svg>
